<mxfile host="app.diagrams.net" modified="2022-03-06T11:27:45.442Z" agent="5.0 (Macintosh; Intel Mac OS X 10_15_7) AppleWebKit/537.36 (KHTML, like Gecko) Chrome/98.0.4758.102 Safari/537.36" etag="nkmicp-85ha69dpPz-Ha" version="16.6.6" type="github">
  <diagram id="IauLjESJVpdjEAgrOzc_" name="第 1 页">
    <mxGraphModel dx="20360" dy="11580" grid="0" gridSize="10" guides="1" tooltips="1" connect="1" arrows="1" fold="1" page="0" pageScale="1" pageWidth="827" pageHeight="1169" math="0" shadow="0">
      <root>
        <mxCell id="0" />
        <mxCell id="1" parent="0" />
        <mxCell id="K6hKkej-laHxI9TTuHX2-17" style="edgeStyle=orthogonalEdgeStyle;rounded=0;orthogonalLoop=1;jettySize=auto;html=1;entryX=0.5;entryY=0;entryDx=0;entryDy=0;exitX=0.5;exitY=0;exitDx=0;exitDy=0;" parent="1" source="K6hKkej-laHxI9TTuHX2-1" target="K6hKkej-laHxI9TTuHX2-6" edge="1">
          <mxGeometry relative="1" as="geometry" />
        </mxCell>
        <mxCell id="K6hKkej-laHxI9TTuHX2-1" value="" style="shape=image;verticalLabelPosition=bottom;labelBackgroundColor=default;verticalAlign=top;aspect=fixed;imageAspect=0;image=data:image/png,iVBORw0KGgoAAAANSUhEUgAAAMgAAADICAYAAACtWK6eAAAAAXNSR0IArs4c6QAAFhRJREFUeF7tnQnYrsd4x/8qKrYqCYJoKE00tiiKSIpSS0SipUGoJdaEVDRibWupLWlIaAlNrBUSoQSRiiqx01IRWyK2rEKtaYmly/Vz5rvOe3LOd97nvmee531m5r6v673ek3xzzzPzn/m/M8/MvVxOIYFAILAuApcLbAKBQGB9BIIgMTsCga0gEASJ6REIBEFiDgQCPgRiBfHhFlqdIBAE6WSgo5s+BIIgPtxCqxMEgiCdDHR004dAEMSHWwmty0vaWdIu6Xs7SVe9zIfnXJI+/5W+L5R0dvp8s0RDoo64B5nDHNhV0p6S7iHpVpJuXKBRP5d0lqR/l/QBSZ+U9LUC9UYVCYFYQcabCttKup+ku0vaI60U4z1tY81fSER5v6S3S/qfKR7a6jOCIOVH9q6S9k3k2Kl89aYaWV0gCZ/PmjSj8K8QCIKUmQhXkvRISQ+X9PtlqixeyymS/lHSicVrbrjCIEje4F4rEeOACbdQeS3e8L4CUfj8ILey1vWDIL4R5gTqKZIOlnR9XxUr1zpP0iskHRnvKXGKVXI2PiCR4/YlK11hXZ9KJHnbCtsw20fHCjJ8aG4p6WmS9h+uUlXJN0s6XNLnq2r1yI0NggwD+E8kvbzi7dSwXkoXSPpzSf80VKH1ckGQ5SP81PTLurxkOyVYKY9opzv+ngRB1sduG0nHSHq0H96qNY+T9Jiqe1Cg8UGQLYN47XRfcJcCGFur+F9JF0n6dlK8rqTrWSspVP40SfcsVFeV1QRBNh+2m0r6lwneN3jGvyYiQIg1Uly8zkxaI8ri930l3WbkmXemJA4oupQgyKbDfkdJHx9pJvxM0smS3iXpVEnfL/QczFn4ld9bEoQZQ74nafsxKp57nUGQjSOEte0XRxiw4xMhSpJivWbukKyFIUzp4+ifSLrKCPjMusogyIbhGYMcb5H09yOuSMsm1u6SnijpwcsKGv7+H5J+z1C++qJBkA3kOL3gFoKV4u/SqjGHCXLvZBLDdwk5SdJ+JSqqoY7eCXIjSe+WdLMCg8W7CysGK8cchZWEFYWVJVe6IUnvBMGi9aG5s0XSMyW9qEA9U1TxDEkvLPCg50h6boF6Zl1FzwR5fLoIzBmgX0p6rKTX5VSyAl18V/5BEpehOYIJzjtyKpi7bq8EuXm6g8CfwyvnS/rj5A/urWOVerdNk3vHjEbg/86JWbN+8L0ShF89/MW98m8z9hy09unTkm5nVVooD5asJE1KjwR5nKRXZYzmyyQdkqE/R9WjJT0po2FsV1+doT9b1d4I8luSPiKJb48cm945PLpz1+GdxGuceG4KacR3U9IbQVg5WEE88kFJf+hRrEgH2zCisniEFYSVpCnpiSDYKnHn4RF+GYmAeKlHuSIdYnkRKsi7wmIL9p6K+ru0qT0RBCNBrzHfrSV9bimabRTYTRImJR7hB2gfj+JcdXohSM7qwQ30CXMdwJHa9aAMi4CmVpFeCOJdPbgp5sa4R3m2s+9NrSI9EMS7enD5RWgffCF6FKLNExLIE2S7mVWkB4JgPMiWwSpPlsT9QM/Cfc9RDgCwcXuYQ292Kq0TBG+7L0sidq5FCPTM6oGtVc+CrRariNUHBLfhm0gip0nV0jpBiPHEzbdViLVbmwGitY9Dy2PY+NqhhRfKNWHI2DpBPBdf6NzNMSFaViE5j/WSlEvZA2sHpWWCkIaA7YFVmvjls3Z6SXmslq3RFjnkYJtVtbRMEE9ExM9Iwgw8ZHMEznCE/7mzpA/XDGbLBMHk4T7GwXmxJDzuQjZHAD97XHYt8leSnm9RmFvZlglCdliyxloEQ70PWRQ6Kvunkt5q7C/B8f7IqDOr4q0ShJChWN9a5BxJv2NR6KwsR+UEu8OgcaiQhfeKQwvPsVyrBME8BFMJi7xS0hMsCh2WfV8KTGfpetWrcqsEIRmMNWBa1QNpmbEZZbEueKlRH/8bnLGqlFYJQqJKS1Dn70oionvI1hHYOfmLWHB6SUpZZ9GZTdlWCfJjSVczoNyUBaqh356ivIdcw6BYNbYtEoT0ABcaBpCibAG8rrjGR1Vf3Lo6n11RiuzNBqdFgnhOsHr2+7AylqNejnwtUu08q7bhWxkdj/9H1S+SlplaoCyXqeQwtAgZskgQVJ20SBBOrzjFskgzDj6WTjvLEmrVGgML8x3MeKqTFgnS1QCuYMbdXdL7jc+t9geoRYIcKulI4wBWuwUw9rNE8d92xOKtdgvbIkE8wQZaxKEEGdar4/+MlVebKqHFiYG5CIlsLBIryHC0SDr09eHFf1USK+BXGHVmUbxFgjzQEccKn2tvsLRZDOSEjcCzEA9DixA040SLwlzKtkgQzwDiN/LeuQzKzNvxKEnHGduICzOuzNVJiwQh6T3ebxZ5tKTXWBQ6LosD1LOM/b+VpM8bdWZRvEWCeExN/lLSC2YxIvNvxJskPcTYzGrf8VokyBUk4ahjEV4gre6klvpbKvsxR6bcX5f0ixpBaJEgjMM3JN3QMCBE7Li/oXzPRTEEZZUeKt+UxMlXldIqQU6RtJdhRL4g6RaG8r0WvaYjVjGHH9bgGbPBt1WCHCHpMCPK+KPjlx6yPgKetAh/K4kQTFVKqwR5hCN0KCYqVnfSKgc9o9GEICUUqUUo/3qLwpzKtkoQ0hqT3tgiBDgj0FnI+ghcIIkTKYsQ4ZK02VVKqwS5ijOyeGyz1p/Gu0viBMsqxCb7b6vSXMq3ShDwZUXY0wg00eCJIBiyOQJcDlqjJBKEz5s1dxZj0DJBPCFqTjWefs1iECdqhCfCO4ajxBurVlomyM0lnekYGRLnWN9fHI+pSsUbKb/6LWvLBGEGkimKFM4WaSZ9mKXTS8q+UdKfGeurfntFf1snyOHOM/h7SjrNOCFaLX4PSYQctUoT9m2tE+ReknivsErVwc6snV1S3ptCm6N2YmhVLa0ThMHxvFyit5+kk6oe3fzGe1Ie8FSiylgtfvNbO0INPRCEdMRvcGAXF4fS6ZL+wIEdK7dnW+Z41LgqPRAEBD8nCacdqzzG4T1nfcZcy+NEdqyjcRADgjQhvRDEcyfCAJPne99a3UUzZihuyyc7MnTxSLZW1sB9GU0dV7UXgmyXVpEdHXCSrZW7ke85dGtUASuyA9/Y0Xheynk5b0Z6IQgD5sl6uzbQH5d0p2ZGfesd8XgMrtVI2NcTWsKpJ4Iwbh/NmOjvkEQO9ZYFz0pyonsEYlizenmeM6lObwTZJ+2tvSAT1RxnrBYlZ4X9iaQ9Wowt1htBmNiE9zkgY4aT1pj0xi2JJyD1Yv+rDS26bBB7JMguaau1/TJwtvL36q1UF/p2UGZYUCJSsnqwijQnPRKEQTywgBn20ZI4Pq5ZjpJ0SEYHCOXDnUeVUROH9LtXgoANeQm5CMwRoqdAtvNyKlmB7g0kHVMg2ki1QamHYt4zQcAIX2myH+XIVyUdXJFpBZbKeE3iq5EjXQTb650g20j6maRfy5kpSZeUC3zOKlDXGFXw7sUvfokIkmyp2FpVGS3RAm7vBAErbLSw1SohP0wkgSgXl6iwQB3XWSDGbxaoj9wgmN8QbK95CYJsGGJP6uitTY5vLRDl0hXNom0XiLFToTZcIom7JLwFu5AgyMZhLk0SaibkP/cu3Jt8aaIZhS8++Ti46yEVREkhQkk35AC4IMim02cMkqw94SOJKG8bgSwYU/LLjhXuHUoyYqGu7sgRBNnyTBqTJGtPZGXB7ol0yhelz9Ct2NVSdHUiHGIbtvcE0dO7JEcQZP2fWvbshO2fUn4g6dsLhOHfCEQg3cDaNwSZSrgdx+x9rS1TPXc2z4kt1vpDcfkUH4sEnz1KE2F7cgcuCLIcQdxOcT/tSbq4BBwyoEGQ5ShxEoSPBBarPQiHCe+UhP8Lmbq6liDI+sPPUSkvwZDDknKslQmFqzEkebukT7bSKWs/giCbI0YsKD6Qg/eQ3oUXdVaUEyURRK4rCYJsGO4rSnq4pP0jic5W5/8HU8QS4hdjw9a89E6QHRIxCC63a/OjXa6DX5EESXAZ+M9y1c6vpl4JQt5ukuU8SZInFND8RnI1LcJyGR99chc2KT0ShNUCYvR6vzHGRCbIHNlsPSnaxmhPsTp7Igj+CxCjmbCYxWZBuYpYTSBKM9uuHgjCSgExWDlCxkegqW1XywTh3QJi8K7BO8ccBIeq70r6Tvrm33zws+A4lWywfK99aPOVFz5k7+W/sce69sIHpyj+m7/PRZrYdrVKkPtKeqmkm6xothD0GotdPmcs/Jv/P6ZAEvxBbpG+1/69SuIQkI5tV5XSIkGIfvjiFYwGxn2Yr5O6bW6ZlQhMQSo1gt5hzj+1EO0dolww9YNzn9cSQa6ZVg0u/KYQfM4hA96CBDE4f4qHFngGW08cq4imCGnYnk0heFRCEkIlVSOtEITI6wRBGzv0PvZJa6sE32NvmcaeSFdNq8ra6uJJeWBtY1XJPVsgCMHfeN9gsMcSVoo3pdvjsZ4xh3pJ9fzQtLKM2R7cjllNZm8tXDtBIMaY4T8xp4AYvaWEZkWBKNbc6BZSnZNIgsXwbKVmguTkslg2IAzakZJInNOz7C7pKRk5Q4ZgBxGPH1JwFWVqJQj7f14ySwvHshCDlSNkIwKsJBCldBihtSc8aq72XDUSBOcdwtyUFF62IcZLGnjxLonLYl284x2aiDLG+x5uzcQQm5XURpAvjmCWzmoBOVg9QpYjwCrCajLG+wn+OG9Z3oTpStREkHMlEba/lPB+ATFm/ZJYqrMj1IMrMkThPaWk3C8zTV7JtlQTWZGYUSUCL6+BF1E7yk0jAnWTcaukkKJhFieHNawgvyzsG35YWjlKDmjvdbGSlLa3wp5s5RHk504Q8t/tVmj2YRrySEmnFqovqtkUgXtLel1h0xV2DT9aJdBzJkhu/rxFXD81YlDnVY7fHJ9d8pSRXCRTmL+si+NcCcIJyRsLjT7pxvAJCZkOgZentHQlnvhWSQ8sUZGnjjkSBEvTD3g6swWdvWJLVQhJezVsud5rV9uixgskYeQ4ucyNIDeV9IlCJ1YM0D9Pjmg8cBEB/P9LvfP9RbLYnhThOREEN9J3Fwrcdv+Uf2NSMONhW0SACJWELy0hxBWY1AxoTgR5fQrilgsk5u/H5VYS+kURwIyEKPm5wn3YnSWdmVvRUP25EARjtRKT+pmSXjS081FuUgSeIemFBZ446Uv7HAhCQntivl4/Ezx8QzCmC5kvAhiD8i6RK5PtEuZAEIzTHpSJGEfCU/miZza1e/U3FIhRRppttlp8jyqrJsiBkl6Z2UMSvnBaQiypkPkjQFwvThf3zGwqW3JWklFllQQhZhNbq+0zekiIS8jxmYw6QnV6BG6TSJIz9rSaC0TeSUaTVRKEoz+OAHOEG3d8xkPqQwBX29wjW06z2GpxujWKrIogB0nC5DxHVna7mtPo0N0EgedLelYmJpyM5daxbhNWQZBrpdvyHCM0AjZwGRhSPwK5Owncpe8gCW/T4rIKgsB4zsS98mVJmJGMfoLhbWDomRDYKZmj/K5Ja9PCZLp6XIb+bFYQUhHg6kpOQK/wUv4+r3LozRIBPAhz7ebuKon4yEVl6hWElzJezrxyuKSne5VDb9YIEHCcwONeIbZA7qHPZs+ekiD7ZDrjE/x4jzFPLLwjE3pFELiGpI9mRq0hfTdhTYvJlAThziMn9D435aWcqIoBGBUVRQBrXW7avQLBci8gN3n2VATBFzwnEyq/Cvw6hLSPwEmSHpDRzQOSb3xGFRtVpyJITqhQEtaztZpbUpoiAxCVbIYAyX5YCbwHOeRrIVFQEZmCIHdLSWa8DX6epGd7lUOvSgSeK+mvM1pO3OYibttTEIR4qyx7HiHsD6tHGCJ60KtXB4NGVpFbO7vAdh4fo2wZmyD4ehDzdltnS59YwCTF+ehQWzECRGskaqNHLk2R6L/qUV7UGZsgbI2e42wkneMXhNTIIf0hQGZedhD8yHqEecdWLUvGJAgvWaweOztbiAFaCRdN5+NDbQYI4EKNUapHzk6rCIc8bhmTIDnmzN9Jq8eF7p6FYgsIXC+tIuR/90i2O8SYBMlxpT0i0+zAA2bozBMBzItI+OmREyQ92KO4pjMWQa4r6SxJxLqyCksi7x5Y7YYEAlj58i7iuRe5RNIuki7ywjgWQXLiIL1KEr7qIYHAGgLHSHq8E46sCChjEeSdkvZ1dgh7rdOduqHWJgK41XpN2U+WRNYql4xBkBtJ4gRhG0eLuP0cI3utoymhMjMEMCHBKsMqJGDiJPUbVkXKj0GQgyUR/t4jeIXhHRYSCFwWgcdKerUTFtJfkAbDLGMQ5D2S7mNuiXS+JNJu/dChGyrtI0C2KaKY7OjoqtuZqjRBdpB0nnN7FaFDHSPfmYo3dOn3JTE3f2HFqzRBcoJQE5mCVGkhgcB6CNxeEinePOKKZVCaIF5nFzIRebZlHqBCp24EmCtEtbGK6/K5NEF+7Lwc5N6D+4+QQGAZAoc4M019WhIrkElKEsQbuoXbTlKvhd2Vaei6LbxrRpC4q0viR3ywlCQIieRJKG+V4zNDAVmfF+XrR8AbAITIOqT5GywlCeL1Ox89QvdgNKJgLQh4s1X9jdWVtyRBMFEn7q5Fzk3bq59alKJs9wiQPsETxIOInJxmDZZSBCF9Ghd9VsGlkpv3kEDAigDHvdaXbu5DtrM8qBRB9pJ0iuXBqex+kjgaDgkErAhwsfxkq1Jy4T1nqF4pgnhdI7ndvHhoY6NcILCAAIEEPdml9peEM98gKUWQEyWxGljkE5J2tyhE2UBgAQFi+bJlsspRlky7pQjyleS5ZWnskZIOsyhE2UDgMgiQSuOORlQ+lmKtDVIrQZArOQO7cbF42qBWRqFAYMsIEPGE7b1Ffm5x3y1BEIwM2S5ZpcSzrc+M8m0hgPcpl4ZW2U3SGUOUSkxSfIXxGbYIdv23tChE2UBgCwgQXI4chVbB+erYIUolCMK7xKFDHrZQ5s2SHmLUieKBwJYQILGSNb8hfiWDzKJKEITJbo09hKkAKbdCAoFcBEi4Q+Idi3DMy3HvUilBEI/h2N7Oi8WlHYoC3SHgiYFAhBSSfi6VEgQhQJw1/i6pf7HDCgkEchHwHBIRdYeAckulBEGsTlI/koQDfkggUAIBwktZfc3xQfqNIQ/PJQihRU0OKCkxStFEi0M6GmWaRuCzjmQ7EASibFVyCcLWii2WRTgSPsiiEGUDgSUIEEuNEKMWYYvFVmtUgnguasL/fNmoxN+tCHju4nhJXxrONHcF4agMl1mLFEuwaHlolG0aAU+iWO7huKIYdQXxRJhgW5adO25Zx+LvXSFAmral26XLIIIvydHLUMpdQdhiWQW7ray0WNYHRvnmESB3iNWqF1BG32I1j3x0sG8EcleQvtGL3jePQBCk+SGODuYgEATJQS90m0cgCNL8EEcHcxAIguSgF7rNIxAEaX6Io4M5CARBctAL3eYRCII0P8TRwRwEgiA56IVu8wgEQZof4uhgDgJBkBz0Qrd5BIIgzQ9xdDAHgSBIDnqh2zwCQZDmhzg6mIPA/wNljR72hXMA8gAAAABJRU5ErkJggg==;" parent="1" vertex="1">
          <mxGeometry x="119" y="180" width="61" height="61" as="geometry" />
        </mxCell>
        <mxCell id="K6hKkej-laHxI9TTuHX2-3" value="" style="endArrow=classic;html=1;rounded=0;strokeColor=#FF0000;strokeWidth=1.5;" parent="1" edge="1">
          <mxGeometry width="50" height="50" relative="1" as="geometry">
            <mxPoint x="190" y="208" as="sourcePoint" />
            <mxPoint x="266" y="208" as="targetPoint" />
          </mxGeometry>
        </mxCell>
        <mxCell id="K6hKkej-laHxI9TTuHX2-4" value="主唱A" style="text;html=1;align=center;verticalAlign=middle;resizable=0;points=[];autosize=1;strokeColor=none;fillColor=none;" parent="1" vertex="1">
          <mxGeometry x="128.5" y="255" width="42" height="18" as="geometry" />
        </mxCell>
        <mxCell id="K6hKkej-laHxI9TTuHX2-5" value="" style="shape=image;verticalLabelPosition=bottom;labelBackgroundColor=default;verticalAlign=top;aspect=fixed;imageAspect=0;image=data:image/png,iVBORw0KGgoAAAANSUhEUgAAAMgAAADICAYAAACtWK6eAAAAAXNSR0IArs4c6QAAFhRJREFUeF7tnQnYrsd4x/8qKrYqCYJoKE00tiiKSIpSS0SipUGoJdaEVDRibWupLWlIaAlNrBUSoQSRiiqx01IRWyK2rEKtaYmly/Vz5rvOe3LOd97nvmee531m5r6v673ek3xzzzPzn/m/M8/MvVxOIYFAILAuApcLbAKBQGB9BIIgMTsCga0gEASJ6REIBEFiDgQCPgRiBfHhFlqdIBAE6WSgo5s+BIIgPtxCqxMEgiCdDHR004dAEMSHWwmty0vaWdIu6Xs7SVe9zIfnXJI+/5W+L5R0dvp8s0RDoo64B5nDHNhV0p6S7iHpVpJuXKBRP5d0lqR/l/QBSZ+U9LUC9UYVCYFYQcabCttKup+ku0vaI60U4z1tY81fSER5v6S3S/qfKR7a6jOCIOVH9q6S9k3k2Kl89aYaWV0gCZ/PmjSj8K8QCIKUmQhXkvRISQ+X9PtlqixeyymS/lHSicVrbrjCIEje4F4rEeOACbdQeS3e8L4CUfj8ILey1vWDIL4R5gTqKZIOlnR9XxUr1zpP0iskHRnvKXGKVXI2PiCR4/YlK11hXZ9KJHnbCtsw20fHCjJ8aG4p6WmS9h+uUlXJN0s6XNLnq2r1yI0NggwD+E8kvbzi7dSwXkoXSPpzSf80VKH1ckGQ5SP81PTLurxkOyVYKY9opzv+ngRB1sduG0nHSHq0H96qNY+T9Jiqe1Cg8UGQLYN47XRfcJcCGFur+F9JF0n6dlK8rqTrWSspVP40SfcsVFeV1QRBNh+2m0r6lwneN3jGvyYiQIg1Uly8zkxaI8ri930l3WbkmXemJA4oupQgyKbDfkdJHx9pJvxM0smS3iXpVEnfL/QczFn4ld9bEoQZQ74nafsxKp57nUGQjSOEte0XRxiw4xMhSpJivWbukKyFIUzp4+ifSLrKCPjMusogyIbhGYMcb5H09yOuSMsm1u6SnijpwcsKGv7+H5J+z1C++qJBkA3kOL3gFoKV4u/SqjGHCXLvZBLDdwk5SdJ+JSqqoY7eCXIjSe+WdLMCg8W7CysGK8cchZWEFYWVJVe6IUnvBMGi9aG5s0XSMyW9qEA9U1TxDEkvLPCg50h6boF6Zl1FzwR5fLoIzBmgX0p6rKTX5VSyAl18V/5BEpehOYIJzjtyKpi7bq8EuXm6g8CfwyvnS/rj5A/urWOVerdNk3vHjEbg/86JWbN+8L0ShF89/MW98m8z9hy09unTkm5nVVooD5asJE1KjwR5nKRXZYzmyyQdkqE/R9WjJT0po2FsV1+doT9b1d4I8luSPiKJb48cm945PLpz1+GdxGuceG4KacR3U9IbQVg5WEE88kFJf+hRrEgH2zCisniEFYSVpCnpiSDYKnHn4RF+GYmAeKlHuSIdYnkRKsi7wmIL9p6K+ru0qT0RBCNBrzHfrSV9bimabRTYTRImJR7hB2gfj+JcdXohSM7qwQ30CXMdwJHa9aAMi4CmVpFeCOJdPbgp5sa4R3m2s+9NrSI9EMS7enD5RWgffCF6FKLNExLIE2S7mVWkB4JgPMiWwSpPlsT9QM/Cfc9RDgCwcXuYQ292Kq0TBG+7L0sidq5FCPTM6oGtVc+CrRariNUHBLfhm0gip0nV0jpBiPHEzbdViLVbmwGitY9Dy2PY+NqhhRfKNWHI2DpBPBdf6NzNMSFaViE5j/WSlEvZA2sHpWWCkIaA7YFVmvjls3Z6SXmslq3RFjnkYJtVtbRMEE9ExM9Iwgw8ZHMEznCE/7mzpA/XDGbLBMHk4T7GwXmxJDzuQjZHAD97XHYt8leSnm9RmFvZlglCdliyxloEQ70PWRQ6Kvunkt5q7C/B8f7IqDOr4q0ShJChWN9a5BxJv2NR6KwsR+UEu8OgcaiQhfeKQwvPsVyrBME8BFMJi7xS0hMsCh2WfV8KTGfpetWrcqsEIRmMNWBa1QNpmbEZZbEueKlRH/8bnLGqlFYJQqJKS1Dn70oionvI1hHYOfmLWHB6SUpZZ9GZTdlWCfJjSVczoNyUBaqh356ivIdcw6BYNbYtEoT0ABcaBpCibAG8rrjGR1Vf3Lo6n11RiuzNBqdFgnhOsHr2+7AylqNejnwtUu08q7bhWxkdj/9H1S+SlplaoCyXqeQwtAgZskgQVJ20SBBOrzjFskgzDj6WTjvLEmrVGgML8x3MeKqTFgnS1QCuYMbdXdL7jc+t9geoRYIcKulI4wBWuwUw9rNE8d92xOKtdgvbIkE8wQZaxKEEGdar4/+MlVebKqHFiYG5CIlsLBIryHC0SDr09eHFf1USK+BXGHVmUbxFgjzQEccKn2tvsLRZDOSEjcCzEA9DixA040SLwlzKtkgQzwDiN/LeuQzKzNvxKEnHGduICzOuzNVJiwQh6T3ebxZ5tKTXWBQ6LosD1LOM/b+VpM8bdWZRvEWCeExN/lLSC2YxIvNvxJskPcTYzGrf8VokyBUk4ahjEV4gre6klvpbKvsxR6bcX5f0ixpBaJEgjMM3JN3QMCBE7Li/oXzPRTEEZZUeKt+UxMlXldIqQU6RtJdhRL4g6RaG8r0WvaYjVjGHH9bgGbPBt1WCHCHpMCPK+KPjlx6yPgKetAh/K4kQTFVKqwR5hCN0KCYqVnfSKgc9o9GEICUUqUUo/3qLwpzKtkoQ0hqT3tgiBDgj0FnI+ghcIIkTKYsQ4ZK02VVKqwS5ijOyeGyz1p/Gu0viBMsqxCb7b6vSXMq3ShDwZUXY0wg00eCJIBiyOQJcDlqjJBKEz5s1dxZj0DJBPCFqTjWefs1iECdqhCfCO4ajxBurVlomyM0lnekYGRLnWN9fHI+pSsUbKb/6LWvLBGEGkimKFM4WaSZ9mKXTS8q+UdKfGeurfntFf1snyOHOM/h7SjrNOCFaLX4PSYQctUoT9m2tE+ReknivsErVwc6snV1S3ptCm6N2YmhVLa0ThMHxvFyit5+kk6oe3fzGe1Ie8FSiylgtfvNbO0INPRCEdMRvcGAXF4fS6ZL+wIEdK7dnW+Z41LgqPRAEBD8nCacdqzzG4T1nfcZcy+NEdqyjcRADgjQhvRDEcyfCAJPne99a3UUzZihuyyc7MnTxSLZW1sB9GU0dV7UXgmyXVpEdHXCSrZW7ke85dGtUASuyA9/Y0Xheynk5b0Z6IQgD5sl6uzbQH5d0p2ZGfesd8XgMrtVI2NcTWsKpJ4Iwbh/NmOjvkEQO9ZYFz0pyonsEYlizenmeM6lObwTZJ+2tvSAT1RxnrBYlZ4X9iaQ9Wowt1htBmNiE9zkgY4aT1pj0xi2JJyD1Yv+rDS26bBB7JMguaau1/TJwtvL36q1UF/p2UGZYUCJSsnqwijQnPRKEQTywgBn20ZI4Pq5ZjpJ0SEYHCOXDnUeVUROH9LtXgoANeQm5CMwRoqdAtvNyKlmB7g0kHVMg2ki1QamHYt4zQcAIX2myH+XIVyUdXJFpBZbKeE3iq5EjXQTb650g20j6maRfy5kpSZeUC3zOKlDXGFXw7sUvfokIkmyp2FpVGS3RAm7vBAErbLSw1SohP0wkgSgXl6iwQB3XWSDGbxaoj9wgmN8QbK95CYJsGGJP6uitTY5vLRDl0hXNom0XiLFToTZcIom7JLwFu5AgyMZhLk0SaibkP/cu3Jt8aaIZhS8++Ti46yEVREkhQkk35AC4IMim02cMkqw94SOJKG8bgSwYU/LLjhXuHUoyYqGu7sgRBNnyTBqTJGtPZGXB7ol0yhelz9Ct2NVSdHUiHGIbtvcE0dO7JEcQZP2fWvbshO2fUn4g6dsLhOHfCEQg3cDaNwSZSrgdx+x9rS1TPXc2z4kt1vpDcfkUH4sEnz1KE2F7cgcuCLIcQdxOcT/tSbq4BBwyoEGQ5ShxEoSPBBarPQiHCe+UhP8Lmbq6liDI+sPPUSkvwZDDknKslQmFqzEkebukT7bSKWs/giCbI0YsKD6Qg/eQ3oUXdVaUEyURRK4rCYJsGO4rSnq4pP0jic5W5/8HU8QS4hdjw9a89E6QHRIxCC63a/OjXa6DX5EESXAZ+M9y1c6vpl4JQt5ukuU8SZInFND8RnI1LcJyGR99chc2KT0ShNUCYvR6vzHGRCbIHNlsPSnaxmhPsTp7Igj+CxCjmbCYxWZBuYpYTSBKM9uuHgjCSgExWDlCxkegqW1XywTh3QJi8K7BO8ccBIeq70r6Tvrm33zws+A4lWywfK99aPOVFz5k7+W/sce69sIHpyj+m7/PRZrYdrVKkPtKeqmkm6xothD0GotdPmcs/Jv/P6ZAEvxBbpG+1/69SuIQkI5tV5XSIkGIfvjiFYwGxn2Yr5O6bW6ZlQhMQSo1gt5hzj+1EO0dolww9YNzn9cSQa6ZVg0u/KYQfM4hA96CBDE4f4qHFngGW08cq4imCGnYnk0heFRCEkIlVSOtEITI6wRBGzv0PvZJa6sE32NvmcaeSFdNq8ra6uJJeWBtY1XJPVsgCMHfeN9gsMcSVoo3pdvjsZ4xh3pJ9fzQtLKM2R7cjllNZm8tXDtBIMaY4T8xp4AYvaWEZkWBKNbc6BZSnZNIgsXwbKVmguTkslg2IAzakZJInNOz7C7pKRk5Q4ZgBxGPH1JwFWVqJQj7f14ySwvHshCDlSNkIwKsJBCldBihtSc8aq72XDUSBOcdwtyUFF62IcZLGnjxLonLYl284x2aiDLG+x5uzcQQm5XURpAvjmCWzmoBOVg9QpYjwCrCajLG+wn+OG9Z3oTpStREkHMlEba/lPB+ATFm/ZJYqrMj1IMrMkThPaWk3C8zTV7JtlQTWZGYUSUCL6+BF1E7yk0jAnWTcaukkKJhFieHNawgvyzsG35YWjlKDmjvdbGSlLa3wp5s5RHk504Q8t/tVmj2YRrySEmnFqovqtkUgXtLel1h0xV2DT9aJdBzJkhu/rxFXD81YlDnVY7fHJ9d8pSRXCRTmL+si+NcCcIJyRsLjT7pxvAJCZkOgZentHQlnvhWSQ8sUZGnjjkSBEvTD3g6swWdvWJLVQhJezVsud5rV9uixgskYeQ4ucyNIDeV9IlCJ1YM0D9Pjmg8cBEB/P9LvfP9RbLYnhThOREEN9J3Fwrcdv+Uf2NSMONhW0SACJWELy0hxBWY1AxoTgR5fQrilgsk5u/H5VYS+kURwIyEKPm5wn3YnSWdmVvRUP25EARjtRKT+pmSXjS081FuUgSeIemFBZ446Uv7HAhCQntivl4/Ezx8QzCmC5kvAhiD8i6RK5PtEuZAEIzTHpSJGEfCU/miZza1e/U3FIhRRppttlp8jyqrJsiBkl6Z2UMSvnBaQiypkPkjQFwvThf3zGwqW3JWklFllQQhZhNbq+0zekiIS8jxmYw6QnV6BG6TSJIz9rSaC0TeSUaTVRKEoz+OAHOEG3d8xkPqQwBX29wjW06z2GpxujWKrIogB0nC5DxHVna7mtPo0N0EgedLelYmJpyM5daxbhNWQZBrpdvyHCM0AjZwGRhSPwK5Owncpe8gCW/T4rIKgsB4zsS98mVJmJGMfoLhbWDomRDYKZmj/K5Ja9PCZLp6XIb+bFYQUhHg6kpOQK/wUv4+r3LozRIBPAhz7ebuKon4yEVl6hWElzJezrxyuKSne5VDb9YIEHCcwONeIbZA7qHPZs+ekiD7ZDrjE/x4jzFPLLwjE3pFELiGpI9mRq0hfTdhTYvJlAThziMn9D435aWcqIoBGBUVRQBrXW7avQLBci8gN3n2VATBFzwnEyq/Cvw6hLSPwEmSHpDRzQOSb3xGFRtVpyJITqhQEtaztZpbUpoiAxCVbIYAyX5YCbwHOeRrIVFQEZmCIHdLSWa8DX6epGd7lUOvSgSeK+mvM1pO3OYibttTEIR4qyx7HiHsD6tHGCJ60KtXB4NGVpFbO7vAdh4fo2wZmyD4ehDzdltnS59YwCTF+ehQWzECRGskaqNHLk2R6L/qUV7UGZsgbI2e42wkneMXhNTIIf0hQGZedhD8yHqEecdWLUvGJAgvWaweOztbiAFaCRdN5+NDbQYI4EKNUapHzk6rCIc8bhmTIDnmzN9Jq8eF7p6FYgsIXC+tIuR/90i2O8SYBMlxpT0i0+zAA2bozBMBzItI+OmREyQ92KO4pjMWQa4r6SxJxLqyCksi7x5Y7YYEAlj58i7iuRe5RNIuki7ywjgWQXLiIL1KEr7qIYHAGgLHSHq8E46sCChjEeSdkvZ1dgh7rdOduqHWJgK41XpN2U+WRNYql4xBkBtJ4gRhG0eLuP0cI3utoymhMjMEMCHBKsMqJGDiJPUbVkXKj0GQgyUR/t4jeIXhHRYSCFwWgcdKerUTFtJfkAbDLGMQ5D2S7mNuiXS+JNJu/dChGyrtI0C2KaKY7OjoqtuZqjRBdpB0nnN7FaFDHSPfmYo3dOn3JTE3f2HFqzRBcoJQE5mCVGkhgcB6CNxeEinePOKKZVCaIF5nFzIRebZlHqBCp24EmCtEtbGK6/K5NEF+7Lwc5N6D+4+QQGAZAoc4M019WhIrkElKEsQbuoXbTlKvhd2Vaei6LbxrRpC4q0viR3ywlCQIieRJKG+V4zNDAVmfF+XrR8AbAITIOqT5GywlCeL1Ox89QvdgNKJgLQh4s1X9jdWVtyRBMFEn7q5Fzk3bq59alKJs9wiQPsETxIOInJxmDZZSBCF9Ghd9VsGlkpv3kEDAigDHvdaXbu5DtrM8qBRB9pJ0iuXBqex+kjgaDgkErAhwsfxkq1Jy4T1nqF4pgnhdI7ndvHhoY6NcILCAAIEEPdml9peEM98gKUWQEyWxGljkE5J2tyhE2UBgAQFi+bJlsspRlky7pQjyleS5ZWnskZIOsyhE2UDgMgiQSuOORlQ+lmKtDVIrQZArOQO7cbF42qBWRqFAYMsIEPGE7b1Ffm5x3y1BEIwM2S5ZpcSzrc+M8m0hgPcpl4ZW2U3SGUOUSkxSfIXxGbYIdv23tChE2UBgCwgQXI4chVbB+erYIUolCMK7xKFDHrZQ5s2SHmLUieKBwJYQILGSNb8hfiWDzKJKEITJbo09hKkAKbdCAoFcBEi4Q+Idi3DMy3HvUilBEI/h2N7Oi8WlHYoC3SHgiYFAhBSSfi6VEgQhQJw1/i6pf7HDCgkEchHwHBIRdYeAckulBEGsTlI/koQDfkggUAIBwktZfc3xQfqNIQ/PJQihRU0OKCkxStFEi0M6GmWaRuCzjmQ7EASibFVyCcLWii2WRTgSPsiiEGUDgSUIEEuNEKMWYYvFVmtUgnguasL/fNmoxN+tCHju4nhJXxrONHcF4agMl1mLFEuwaHlolG0aAU+iWO7huKIYdQXxRJhgW5adO25Zx+LvXSFAmral26XLIIIvydHLUMpdQdhiWQW7ray0WNYHRvnmESB3iNWqF1BG32I1j3x0sG8EcleQvtGL3jePQBCk+SGODuYgEATJQS90m0cgCNL8EEcHcxAIguSgF7rNIxAEaX6Io4M5CARBctAL3eYRCII0P8TRwRwEgiA56IVu8wgEQZof4uhgDgJBkBz0Qrd5BIIgzQ9xdDAHgSBIDnqh2zwCQZDmhzg6mIPA/wNljR72hXMA8gAAAABJRU5ErkJggg==;" parent="1" vertex="1">
          <mxGeometry x="278" y="180" width="61" height="61" as="geometry" />
        </mxCell>
        <mxCell id="K6hKkej-laHxI9TTuHX2-6" value="" style="shape=image;verticalLabelPosition=bottom;labelBackgroundColor=default;verticalAlign=top;aspect=fixed;imageAspect=0;image=data:image/png,iVBORw0KGgoAAAANSUhEUgAAAMgAAADICAYAAACtWK6eAAAAAXNSR0IArs4c6QAAFhRJREFUeF7tnQnYrsd4x/8qKrYqCYJoKE00tiiKSIpSS0SipUGoJdaEVDRibWupLWlIaAlNrBUSoQSRiiqx01IRWyK2rEKtaYmly/Vz5rvOe3LOd97nvmee531m5r6v673ek3xzzzPzn/m/M8/MvVxOIYFAILAuApcLbAKBQGB9BIIgMTsCga0gEASJ6REIBEFiDgQCPgRiBfHhFlqdIBAE6WSgo5s+BIIgPtxCqxMEgiCdDHR004dAEMSHWwmty0vaWdIu6Xs7SVe9zIfnXJI+/5W+L5R0dvp8s0RDoo64B5nDHNhV0p6S7iHpVpJuXKBRP5d0lqR/l/QBSZ+U9LUC9UYVCYFYQcabCttKup+ku0vaI60U4z1tY81fSER5v6S3S/qfKR7a6jOCIOVH9q6S9k3k2Kl89aYaWV0gCZ/PmjSj8K8QCIKUmQhXkvRISQ+X9PtlqixeyymS/lHSicVrbrjCIEje4F4rEeOACbdQeS3e8L4CUfj8ILey1vWDIL4R5gTqKZIOlnR9XxUr1zpP0iskHRnvKXGKVXI2PiCR4/YlK11hXZ9KJHnbCtsw20fHCjJ8aG4p6WmS9h+uUlXJN0s6XNLnq2r1yI0NggwD+E8kvbzi7dSwXkoXSPpzSf80VKH1ckGQ5SP81PTLurxkOyVYKY9opzv+ngRB1sduG0nHSHq0H96qNY+T9Jiqe1Cg8UGQLYN47XRfcJcCGFur+F9JF0n6dlK8rqTrWSspVP40SfcsVFeV1QRBNh+2m0r6lwneN3jGvyYiQIg1Uly8zkxaI8ri930l3WbkmXemJA4oupQgyKbDfkdJHx9pJvxM0smS3iXpVEnfL/QczFn4ld9bEoQZQ74nafsxKp57nUGQjSOEte0XRxiw4xMhSpJivWbukKyFIUzp4+ifSLrKCPjMusogyIbhGYMcb5H09yOuSMsm1u6SnijpwcsKGv7+H5J+z1C++qJBkA3kOL3gFoKV4u/SqjGHCXLvZBLDdwk5SdJ+JSqqoY7eCXIjSe+WdLMCg8W7CysGK8cchZWEFYWVJVe6IUnvBMGi9aG5s0XSMyW9qEA9U1TxDEkvLPCg50h6boF6Zl1FzwR5fLoIzBmgX0p6rKTX5VSyAl18V/5BEpehOYIJzjtyKpi7bq8EuXm6g8CfwyvnS/rj5A/urWOVerdNk3vHjEbg/86JWbN+8L0ShF89/MW98m8z9hy09unTkm5nVVooD5asJE1KjwR5nKRXZYzmyyQdkqE/R9WjJT0po2FsV1+doT9b1d4I8luSPiKJb48cm945PLpz1+GdxGuceG4KacR3U9IbQVg5WEE88kFJf+hRrEgH2zCisniEFYSVpCnpiSDYKnHn4RF+GYmAeKlHuSIdYnkRKsi7wmIL9p6K+ru0qT0RBCNBrzHfrSV9bimabRTYTRImJR7hB2gfj+JcdXohSM7qwQ30CXMdwJHa9aAMi4CmVpFeCOJdPbgp5sa4R3m2s+9NrSI9EMS7enD5RWgffCF6FKLNExLIE2S7mVWkB4JgPMiWwSpPlsT9QM/Cfc9RDgCwcXuYQ292Kq0TBG+7L0sidq5FCPTM6oGtVc+CrRariNUHBLfhm0gip0nV0jpBiPHEzbdViLVbmwGitY9Dy2PY+NqhhRfKNWHI2DpBPBdf6NzNMSFaViE5j/WSlEvZA2sHpWWCkIaA7YFVmvjls3Z6SXmslq3RFjnkYJtVtbRMEE9ExM9Iwgw8ZHMEznCE/7mzpA/XDGbLBMHk4T7GwXmxJDzuQjZHAD97XHYt8leSnm9RmFvZlglCdliyxloEQ70PWRQ6Kvunkt5q7C/B8f7IqDOr4q0ShJChWN9a5BxJv2NR6KwsR+UEu8OgcaiQhfeKQwvPsVyrBME8BFMJi7xS0hMsCh2WfV8KTGfpetWrcqsEIRmMNWBa1QNpmbEZZbEueKlRH/8bnLGqlFYJQqJKS1Dn70oionvI1hHYOfmLWHB6SUpZZ9GZTdlWCfJjSVczoNyUBaqh356ivIdcw6BYNbYtEoT0ABcaBpCibAG8rrjGR1Vf3Lo6n11RiuzNBqdFgnhOsHr2+7AylqNejnwtUu08q7bhWxkdj/9H1S+SlplaoCyXqeQwtAgZskgQVJ20SBBOrzjFskgzDj6WTjvLEmrVGgML8x3MeKqTFgnS1QCuYMbdXdL7jc+t9geoRYIcKulI4wBWuwUw9rNE8d92xOKtdgvbIkE8wQZaxKEEGdar4/+MlVebKqHFiYG5CIlsLBIryHC0SDr09eHFf1USK+BXGHVmUbxFgjzQEccKn2tvsLRZDOSEjcCzEA9DixA040SLwlzKtkgQzwDiN/LeuQzKzNvxKEnHGduICzOuzNVJiwQh6T3ebxZ5tKTXWBQ6LosD1LOM/b+VpM8bdWZRvEWCeExN/lLSC2YxIvNvxJskPcTYzGrf8VokyBUk4ahjEV4gre6klvpbKvsxR6bcX5f0ixpBaJEgjMM3JN3QMCBE7Li/oXzPRTEEZZUeKt+UxMlXldIqQU6RtJdhRL4g6RaG8r0WvaYjVjGHH9bgGbPBt1WCHCHpMCPK+KPjlx6yPgKetAh/K4kQTFVKqwR5hCN0KCYqVnfSKgc9o9GEICUUqUUo/3qLwpzKtkoQ0hqT3tgiBDgj0FnI+ghcIIkTKYsQ4ZK02VVKqwS5ijOyeGyz1p/Gu0viBMsqxCb7b6vSXMq3ShDwZUXY0wg00eCJIBiyOQJcDlqjJBKEz5s1dxZj0DJBPCFqTjWefs1iECdqhCfCO4ajxBurVlomyM0lnekYGRLnWN9fHI+pSsUbKb/6LWvLBGEGkimKFM4WaSZ9mKXTS8q+UdKfGeurfntFf1snyOHOM/h7SjrNOCFaLX4PSYQctUoT9m2tE+ReknivsErVwc6snV1S3ptCm6N2YmhVLa0ThMHxvFyit5+kk6oe3fzGe1Ie8FSiylgtfvNbO0INPRCEdMRvcGAXF4fS6ZL+wIEdK7dnW+Z41LgqPRAEBD8nCacdqzzG4T1nfcZcy+NEdqyjcRADgjQhvRDEcyfCAJPne99a3UUzZihuyyc7MnTxSLZW1sB9GU0dV7UXgmyXVpEdHXCSrZW7ke85dGtUASuyA9/Y0Xheynk5b0Z6IQgD5sl6uzbQH5d0p2ZGfesd8XgMrtVI2NcTWsKpJ4Iwbh/NmOjvkEQO9ZYFz0pyonsEYlizenmeM6lObwTZJ+2tvSAT1RxnrBYlZ4X9iaQ9Wowt1htBmNiE9zkgY4aT1pj0xi2JJyD1Yv+rDS26bBB7JMguaau1/TJwtvL36q1UF/p2UGZYUCJSsnqwijQnPRKEQTywgBn20ZI4Pq5ZjpJ0SEYHCOXDnUeVUROH9LtXgoANeQm5CMwRoqdAtvNyKlmB7g0kHVMg2ki1QamHYt4zQcAIX2myH+XIVyUdXJFpBZbKeE3iq5EjXQTb650g20j6maRfy5kpSZeUC3zOKlDXGFXw7sUvfokIkmyp2FpVGS3RAm7vBAErbLSw1SohP0wkgSgXl6iwQB3XWSDGbxaoj9wgmN8QbK95CYJsGGJP6uitTY5vLRDl0hXNom0XiLFToTZcIom7JLwFu5AgyMZhLk0SaibkP/cu3Jt8aaIZhS8++Ti46yEVREkhQkk35AC4IMim02cMkqw94SOJKG8bgSwYU/LLjhXuHUoyYqGu7sgRBNnyTBqTJGtPZGXB7ol0yhelz9Ct2NVSdHUiHGIbtvcE0dO7JEcQZP2fWvbshO2fUn4g6dsLhOHfCEQg3cDaNwSZSrgdx+x9rS1TPXc2z4kt1vpDcfkUH4sEnz1KE2F7cgcuCLIcQdxOcT/tSbq4BBwyoEGQ5ShxEoSPBBarPQiHCe+UhP8Lmbq6liDI+sPPUSkvwZDDknKslQmFqzEkebukT7bSKWs/giCbI0YsKD6Qg/eQ3oUXdVaUEyURRK4rCYJsGO4rSnq4pP0jic5W5/8HU8QS4hdjw9a89E6QHRIxCC63a/OjXa6DX5EESXAZ+M9y1c6vpl4JQt5ukuU8SZInFND8RnI1LcJyGR99chc2KT0ShNUCYvR6vzHGRCbIHNlsPSnaxmhPsTp7Igj+CxCjmbCYxWZBuYpYTSBKM9uuHgjCSgExWDlCxkegqW1XywTh3QJi8K7BO8ccBIeq70r6Tvrm33zws+A4lWywfK99aPOVFz5k7+W/sce69sIHpyj+m7/PRZrYdrVKkPtKeqmkm6xothD0GotdPmcs/Jv/P6ZAEvxBbpG+1/69SuIQkI5tV5XSIkGIfvjiFYwGxn2Yr5O6bW6ZlQhMQSo1gt5hzj+1EO0dolww9YNzn9cSQa6ZVg0u/KYQfM4hA96CBDE4f4qHFngGW08cq4imCGnYnk0heFRCEkIlVSOtEITI6wRBGzv0PvZJa6sE32NvmcaeSFdNq8ra6uJJeWBtY1XJPVsgCMHfeN9gsMcSVoo3pdvjsZ4xh3pJ9fzQtLKM2R7cjllNZm8tXDtBIMaY4T8xp4AYvaWEZkWBKNbc6BZSnZNIgsXwbKVmguTkslg2IAzakZJInNOz7C7pKRk5Q4ZgBxGPH1JwFWVqJQj7f14ySwvHshCDlSNkIwKsJBCldBihtSc8aq72XDUSBOcdwtyUFF62IcZLGnjxLonLYl284x2aiDLG+x5uzcQQm5XURpAvjmCWzmoBOVg9QpYjwCrCajLG+wn+OG9Z3oTpStREkHMlEba/lPB+ATFm/ZJYqrMj1IMrMkThPaWk3C8zTV7JtlQTWZGYUSUCL6+BF1E7yk0jAnWTcaukkKJhFieHNawgvyzsG35YWjlKDmjvdbGSlLa3wp5s5RHk504Q8t/tVmj2YRrySEmnFqovqtkUgXtLel1h0xV2DT9aJdBzJkhu/rxFXD81YlDnVY7fHJ9d8pSRXCRTmL+si+NcCcIJyRsLjT7pxvAJCZkOgZentHQlnvhWSQ8sUZGnjjkSBEvTD3g6swWdvWJLVQhJezVsud5rV9uixgskYeQ4ucyNIDeV9IlCJ1YM0D9Pjmg8cBEB/P9LvfP9RbLYnhThOREEN9J3Fwrcdv+Uf2NSMONhW0SACJWELy0hxBWY1AxoTgR5fQrilgsk5u/H5VYS+kURwIyEKPm5wn3YnSWdmVvRUP25EARjtRKT+pmSXjS081FuUgSeIemFBZ446Uv7HAhCQntivl4/Ezx8QzCmC5kvAhiD8i6RK5PtEuZAEIzTHpSJGEfCU/miZza1e/U3FIhRRppttlp8jyqrJsiBkl6Z2UMSvnBaQiypkPkjQFwvThf3zGwqW3JWklFllQQhZhNbq+0zekiIS8jxmYw6QnV6BG6TSJIz9rSaC0TeSUaTVRKEoz+OAHOEG3d8xkPqQwBX29wjW06z2GpxujWKrIogB0nC5DxHVna7mtPo0N0EgedLelYmJpyM5daxbhNWQZBrpdvyHCM0AjZwGRhSPwK5Owncpe8gCW/T4rIKgsB4zsS98mVJmJGMfoLhbWDomRDYKZmj/K5Ja9PCZLp6XIb+bFYQUhHg6kpOQK/wUv4+r3LozRIBPAhz7ebuKon4yEVl6hWElzJezrxyuKSne5VDb9YIEHCcwONeIbZA7qHPZs+ekiD7ZDrjE/x4jzFPLLwjE3pFELiGpI9mRq0hfTdhTYvJlAThziMn9D435aWcqIoBGBUVRQBrXW7avQLBci8gN3n2VATBFzwnEyq/Cvw6hLSPwEmSHpDRzQOSb3xGFRtVpyJITqhQEtaztZpbUpoiAxCVbIYAyX5YCbwHOeRrIVFQEZmCIHdLSWa8DX6epGd7lUOvSgSeK+mvM1pO3OYibttTEIR4qyx7HiHsD6tHGCJ60KtXB4NGVpFbO7vAdh4fo2wZmyD4ehDzdltnS59YwCTF+ehQWzECRGskaqNHLk2R6L/qUV7UGZsgbI2e42wkneMXhNTIIf0hQGZedhD8yHqEecdWLUvGJAgvWaweOztbiAFaCRdN5+NDbQYI4EKNUapHzk6rCIc8bhmTIDnmzN9Jq8eF7p6FYgsIXC+tIuR/90i2O8SYBMlxpT0i0+zAA2bozBMBzItI+OmREyQ92KO4pjMWQa4r6SxJxLqyCksi7x5Y7YYEAlj58i7iuRe5RNIuki7ywjgWQXLiIL1KEr7qIYHAGgLHSHq8E46sCChjEeSdkvZ1dgh7rdOduqHWJgK41XpN2U+WRNYql4xBkBtJ4gRhG0eLuP0cI3utoymhMjMEMCHBKsMqJGDiJPUbVkXKj0GQgyUR/t4jeIXhHRYSCFwWgcdKerUTFtJfkAbDLGMQ5D2S7mNuiXS+JNJu/dChGyrtI0C2KaKY7OjoqtuZqjRBdpB0nnN7FaFDHSPfmYo3dOn3JTE3f2HFqzRBcoJQE5mCVGkhgcB6CNxeEinePOKKZVCaIF5nFzIRebZlHqBCp24EmCtEtbGK6/K5NEF+7Lwc5N6D+4+QQGAZAoc4M019WhIrkElKEsQbuoXbTlKvhd2Vaei6LbxrRpC4q0viR3ywlCQIieRJKG+V4zNDAVmfF+XrR8AbAITIOqT5GywlCeL1Ox89QvdgNKJgLQh4s1X9jdWVtyRBMFEn7q5Fzk3bq59alKJs9wiQPsETxIOInJxmDZZSBCF9Ghd9VsGlkpv3kEDAigDHvdaXbu5DtrM8qBRB9pJ0iuXBqex+kjgaDgkErAhwsfxkq1Jy4T1nqF4pgnhdI7ndvHhoY6NcILCAAIEEPdml9peEM98gKUWQEyWxGljkE5J2tyhE2UBgAQFi+bJlsspRlky7pQjyleS5ZWnskZIOsyhE2UDgMgiQSuOORlQ+lmKtDVIrQZArOQO7cbF42qBWRqFAYMsIEPGE7b1Ffm5x3y1BEIwM2S5ZpcSzrc+M8m0hgPcpl4ZW2U3SGUOUSkxSfIXxGbYIdv23tChE2UBgCwgQXI4chVbB+erYIUolCMK7xKFDHrZQ5s2SHmLUieKBwJYQILGSNb8hfiWDzKJKEITJbo09hKkAKbdCAoFcBEi4Q+Idi3DMy3HvUilBEI/h2N7Oi8WlHYoC3SHgiYFAhBSSfi6VEgQhQJw1/i6pf7HDCgkEchHwHBIRdYeAckulBEGsTlI/koQDfkggUAIBwktZfc3xQfqNIQ/PJQihRU0OKCkxStFEi0M6GmWaRuCzjmQ7EASibFVyCcLWii2WRTgSPsiiEGUDgSUIEEuNEKMWYYvFVmtUgnguasL/fNmoxN+tCHju4nhJXxrONHcF4agMl1mLFEuwaHlolG0aAU+iWO7huKIYdQXxRJhgW5adO25Zx+LvXSFAmral26XLIIIvydHLUMpdQdhiWQW7ray0WNYHRvnmESB3iNWqF1BG32I1j3x0sG8EcleQvtGL3jePQBCk+SGODuYgEATJQS90m0cgCNL8EEcHcxAIguSgF7rNIxAEaX6Io4M5CARBctAL3eYRCII0P8TRwRwEgiA56IVu8wgEQZof4uhgDgJBkBz0Qrd5BIIgzQ9xdDAHgSBIDnqh2zwCQZDmhzg6mIPA/wNljR72hXMA8gAAAABJRU5ErkJggg==;" parent="1" vertex="1">
          <mxGeometry x="384" y="180" width="61" height="61" as="geometry" />
        </mxCell>
        <mxCell id="K6hKkej-laHxI9TTuHX2-7" value="&lt;div style=&quot;text-align: center&quot;&gt;&lt;span&gt;&lt;font face=&quot;helvetica&quot;&gt;副唱B&lt;/font&gt;&lt;/span&gt;&lt;/div&gt;" style="text;whiteSpace=wrap;html=1;" parent="1" vertex="1">
          <mxGeometry x="293" y="250" width="52" height="28" as="geometry" />
        </mxCell>
        <mxCell id="K6hKkej-laHxI9TTuHX2-8" value="&lt;div style=&quot;text-align: center&quot;&gt;&lt;font face=&quot;helvetica&quot;&gt;听众&lt;/font&gt;&lt;/div&gt;" style="text;whiteSpace=wrap;html=1;" parent="1" vertex="1">
          <mxGeometry x="403" y="250" width="52" height="28" as="geometry" />
        </mxCell>
        <mxCell id="K6hKkej-laHxI9TTuHX2-9" value="T&lt;br&gt;（A干声+伴奏）" style="text;html=1;align=center;verticalAlign=middle;resizable=0;points=[];autosize=1;strokeColor=none;fillColor=none;" parent="1" vertex="1">
          <mxGeometry x="178" y="171" width="97" height="32" as="geometry" />
        </mxCell>
        <mxCell id="K6hKkej-laHxI9TTuHX2-10" value="" style="endArrow=classic;html=1;rounded=0;strokeColor=#FF0000;strokeWidth=1.5;" parent="1" edge="1">
          <mxGeometry width="50" height="50" relative="1" as="geometry">
            <mxPoint x="264" y="217" as="sourcePoint" />
            <mxPoint x="188" y="217" as="targetPoint" />
          </mxGeometry>
        </mxCell>
        <mxCell id="K6hKkej-laHxI9TTuHX2-12" value="T&lt;br&gt;（B干声）" style="text;html=1;align=center;verticalAlign=middle;resizable=0;points=[];autosize=1;strokeColor=none;fillColor=none;" parent="1" vertex="1">
          <mxGeometry x="194" y="220" width="66" height="32" as="geometry" />
        </mxCell>
        <mxCell id="K6hKkej-laHxI9TTuHX2-13" value="" style="endArrow=classic;html=1;rounded=0;" parent="1" edge="1">
          <mxGeometry width="50" height="50" relative="1" as="geometry">
            <mxPoint x="339" y="207" as="sourcePoint" />
            <mxPoint x="385" y="207" as="targetPoint" />
          </mxGeometry>
        </mxCell>
        <mxCell id="K6hKkej-laHxI9TTuHX2-15" value="T" style="text;html=1;align=center;verticalAlign=middle;resizable=0;points=[];autosize=1;strokeColor=none;fillColor=none;" parent="1" vertex="1">
          <mxGeometry x="351" y="183" width="18" height="18" as="geometry" />
        </mxCell>
        <mxCell id="K6hKkej-laHxI9TTuHX2-18" value="T" style="text;html=1;align=center;verticalAlign=middle;resizable=0;points=[];autosize=1;strokeColor=none;fillColor=none;" parent="1" vertex="1">
          <mxGeometry x="357" y="140" width="18" height="18" as="geometry" />
        </mxCell>
        <mxCell id="K6hKkej-laHxI9TTuHX2-19" value="" style="rounded=1;whiteSpace=wrap;html=1;dashed=1;fillColor=none;strokeColor=#F19C99;" parent="1" vertex="1">
          <mxGeometry x="113" y="167" width="238" height="122" as="geometry" />
        </mxCell>
        <mxCell id="BaT0wegMIeFayMMjgJNc-1" value="" style="rounded=1;whiteSpace=wrap;html=1;dashed=1;fillColor=none;strokeColor=#007FFF;strokeWidth=1.5;" vertex="1" parent="1">
          <mxGeometry x="197.5" y="372" width="344.5" height="129" as="geometry" />
        </mxCell>
        <mxCell id="BaT0wegMIeFayMMjgJNc-2" value="麦位控制器" style="rounded=1;whiteSpace=wrap;html=1;strokeColor=#d6b656;strokeWidth=1.5;fillColor=#fff2cc;shadow=1;" vertex="1" parent="1">
          <mxGeometry x="219" y="385" width="93" height="24" as="geometry" />
        </mxCell>
        <mxCell id="BaT0wegMIeFayMMjgJNc-3" value="麦位日志" style="rounded=1;whiteSpace=wrap;html=1;strokeColor=#d6b656;strokeWidth=1.5;fillColor=#fff2cc;shadow=1;" vertex="1" parent="1">
          <mxGeometry x="337" y="385" width="75" height="24" as="geometry" />
        </mxCell>
        <mxCell id="BaT0wegMIeFayMMjgJNc-32" value="&lt;font color=&quot;#33001a&quot;&gt;IM消息&lt;/font&gt;" style="edgeStyle=orthogonalEdgeStyle;rounded=0;orthogonalLoop=1;jettySize=auto;html=1;exitX=0.5;exitY=1;exitDx=0;exitDy=0;fontSize=10;fontColor=#FF3333;strokeColor=#33001A;strokeWidth=1;entryX=0.123;entryY=-0.012;entryDx=0;entryDy=0;entryPerimeter=0;" edge="1" parent="1" source="BaT0wegMIeFayMMjgJNc-4" target="BaT0wegMIeFayMMjgJNc-12">
          <mxGeometry x="0.0256" y="4" relative="1" as="geometry">
            <mxPoint x="239" y="565" as="targetPoint" />
            <mxPoint as="offset" />
          </mxGeometry>
        </mxCell>
        <mxCell id="BaT0wegMIeFayMMjgJNc-4" value="麦序1" style="rounded=1;whiteSpace=wrap;html=1;strokeColor=#d6b656;strokeWidth=1.5;fillColor=#fff2cc;shadow=1;" vertex="1" parent="1">
          <mxGeometry x="215" y="435" width="47" height="45" as="geometry" />
        </mxCell>
        <mxCell id="BaT0wegMIeFayMMjgJNc-5" value="麦位监控" style="rounded=1;whiteSpace=wrap;html=1;strokeColor=#d6b656;strokeWidth=1.5;fillColor=#fff2cc;shadow=1;" vertex="1" parent="1">
          <mxGeometry x="488" y="385" width="27" height="90" as="geometry" />
        </mxCell>
        <mxCell id="BaT0wegMIeFayMMjgJNc-7" value="上麦队列" style="text;html=1;align=center;verticalAlign=middle;resizable=0;points=[];autosize=1;strokeColor=none;fillColor=none;fontColor=#FF3333;" vertex="1" parent="1">
          <mxGeometry x="236.5" y="412" width="58" height="18" as="geometry" />
        </mxCell>
        <mxCell id="BaT0wegMIeFayMMjgJNc-8" value="麦位server" style="text;html=1;align=center;verticalAlign=middle;resizable=0;points=[];autosize=1;strokeColor=none;fillColor=none;fontColor=#FF3333;" vertex="1" parent="1">
          <mxGeometry x="464" y="480" width="68" height="18" as="geometry" />
        </mxCell>
        <mxCell id="BaT0wegMIeFayMMjgJNc-9" value="麦序2" style="rounded=1;whiteSpace=wrap;html=1;strokeColor=#d6b656;strokeWidth=1.5;fillColor=#fff2cc;shadow=1;" vertex="1" parent="1">
          <mxGeometry x="269" y="435" width="47" height="45" as="geometry" />
        </mxCell>
        <mxCell id="BaT0wegMIeFayMMjgJNc-10" value="麦序3" style="rounded=1;whiteSpace=wrap;html=1;strokeColor=#d6b656;strokeWidth=1.5;fillColor=#fff2cc;shadow=1;" vertex="1" parent="1">
          <mxGeometry x="323" y="435" width="47" height="45" as="geometry" />
        </mxCell>
        <mxCell id="BaT0wegMIeFayMMjgJNc-11" value="麦序N&lt;br&gt;" style="rounded=1;whiteSpace=wrap;html=1;strokeColor=#d6b656;strokeWidth=1.5;fillColor=#fff2cc;shadow=1;" vertex="1" parent="1">
          <mxGeometry x="431" y="435" width="47" height="45" as="geometry" />
        </mxCell>
        <mxCell id="BaT0wegMIeFayMMjgJNc-12" value="" style="rounded=1;whiteSpace=wrap;html=1;dashed=1;fillColor=none;strokeColor=#007FFF;strokeWidth=1.5;" vertex="1" parent="1">
          <mxGeometry x="196.25" y="540" width="344.5" height="112" as="geometry" />
        </mxCell>
        <mxCell id="BaT0wegMIeFayMMjgJNc-24" style="edgeStyle=orthogonalEdgeStyle;orthogonalLoop=1;jettySize=auto;html=1;exitX=1;exitY=0.5;exitDx=0;exitDy=0;entryX=0;entryY=0.5;entryDx=0;entryDy=0;fontColor=#FF3333;strokeColor=#33001A;strokeWidth=1;rounded=1;" edge="1" parent="1" source="BaT0wegMIeFayMMjgJNc-13" target="BaT0wegMIeFayMMjgJNc-14">
          <mxGeometry relative="1" as="geometry" />
        </mxCell>
        <mxCell id="BaT0wegMIeFayMMjgJNc-13" value="麦序到达" style="rounded=1;whiteSpace=wrap;html=1;strokeColor=#d6b656;strokeWidth=1.5;fillColor=#fff2cc;shadow=1;" vertex="1" parent="1">
          <mxGeometry x="217.75" y="553" width="93" height="24" as="geometry" />
        </mxCell>
        <mxCell id="BaT0wegMIeFayMMjgJNc-28" style="edgeStyle=orthogonalEdgeStyle;rounded=1;orthogonalLoop=1;jettySize=auto;html=1;exitX=1;exitY=0.5;exitDx=0;exitDy=0;entryX=0;entryY=0.5;entryDx=0;entryDy=0;fontColor=#FF3333;strokeColor=#33001A;strokeWidth=1;" edge="1" parent="1" source="BaT0wegMIeFayMMjgJNc-14" target="BaT0wegMIeFayMMjgJNc-25">
          <mxGeometry relative="1" as="geometry" />
        </mxCell>
        <mxCell id="BaT0wegMIeFayMMjgJNc-30" style="edgeStyle=orthogonalEdgeStyle;rounded=0;orthogonalLoop=1;jettySize=auto;html=1;exitX=0.5;exitY=1;exitDx=0;exitDy=0;fontSize=10;fontColor=#FF3333;strokeColor=#33001A;strokeWidth=1;dashed=1;" edge="1" parent="1" source="BaT0wegMIeFayMMjgJNc-14" target="BaT0wegMIeFayMMjgJNc-29">
          <mxGeometry relative="1" as="geometry" />
        </mxCell>
        <mxCell id="BaT0wegMIeFayMMjgJNc-14" value="确认上麦" style="rounded=1;whiteSpace=wrap;html=1;strokeColor=#d6b656;strokeWidth=1.5;fillColor=#fff2cc;shadow=1;" vertex="1" parent="1">
          <mxGeometry x="335.75" y="553" width="75" height="24" as="geometry" />
        </mxCell>
        <mxCell id="BaT0wegMIeFayMMjgJNc-18" value="c端用户流程" style="text;html=1;align=center;verticalAlign=middle;resizable=0;points=[];autosize=1;strokeColor=none;fillColor=none;fontColor=#FF3333;" vertex="1" parent="1">
          <mxGeometry x="209" y="626" width="76" height="18" as="geometry" />
        </mxCell>
        <mxCell id="BaT0wegMIeFayMMjgJNc-22" value="....." style="rounded=1;whiteSpace=wrap;html=1;strokeColor=#d6b656;strokeWidth=1.5;fillColor=#fff2cc;shadow=1;" vertex="1" parent="1">
          <mxGeometry x="377" y="435" width="47" height="45" as="geometry" />
        </mxCell>
        <mxCell id="BaT0wegMIeFayMMjgJNc-27" style="edgeStyle=orthogonalEdgeStyle;rounded=1;orthogonalLoop=1;jettySize=auto;html=1;exitX=0.5;exitY=1;exitDx=0;exitDy=0;entryX=0.5;entryY=0;entryDx=0;entryDy=0;fontColor=#FF3333;strokeColor=#33001A;strokeWidth=1;" edge="1" parent="1" source="BaT0wegMIeFayMMjgJNc-25" target="BaT0wegMIeFayMMjgJNc-26">
          <mxGeometry relative="1" as="geometry" />
        </mxCell>
        <mxCell id="BaT0wegMIeFayMMjgJNc-25" value="匹配合唱者" style="rounded=1;whiteSpace=wrap;html=1;strokeColor=#d6b656;strokeWidth=1.5;fillColor=#fff2cc;shadow=1;" vertex="1" parent="1">
          <mxGeometry x="436" y="553" width="75" height="24" as="geometry" />
        </mxCell>
        <mxCell id="BaT0wegMIeFayMMjgJNc-31" style="edgeStyle=orthogonalEdgeStyle;rounded=0;orthogonalLoop=1;jettySize=auto;html=1;exitX=0;exitY=0.5;exitDx=0;exitDy=0;entryX=1;entryY=0.5;entryDx=0;entryDy=0;fontSize=10;fontColor=#FF3333;strokeColor=#33001A;strokeWidth=1;" edge="1" parent="1" source="BaT0wegMIeFayMMjgJNc-26" target="BaT0wegMIeFayMMjgJNc-29">
          <mxGeometry relative="1" as="geometry" />
        </mxCell>
        <mxCell id="BaT0wegMIeFayMMjgJNc-26" value="合唱者上麦" style="rounded=1;whiteSpace=wrap;html=1;strokeColor=#d6b656;strokeWidth=1.5;fillColor=#fff2cc;shadow=1;" vertex="1" parent="1">
          <mxGeometry x="436" y="614" width="75" height="24" as="geometry" />
        </mxCell>
        <mxCell id="BaT0wegMIeFayMMjgJNc-29" value="&lt;font style=&quot;font-size: 10px&quot;&gt;播放伴奏唱歌&lt;/font&gt;" style="rounded=1;whiteSpace=wrap;html=1;strokeColor=#d6b656;strokeWidth=1.5;fillColor=#fff2cc;shadow=1;" vertex="1" parent="1">
          <mxGeometry x="335.75" y="614" width="75" height="24" as="geometry" />
        </mxCell>
        <mxCell id="BaT0wegMIeFayMMjgJNc-33" value="" style="endArrow=classic;html=1;rounded=0;fontSize=10;fontColor=#FF3333;strokeColor=#33001A;strokeWidth=1;exitX=0.5;exitY=0;exitDx=0;exitDy=0;entryX=0.496;entryY=1.004;entryDx=0;entryDy=0;entryPerimeter=0;" edge="1" parent="1" source="BaT0wegMIeFayMMjgJNc-12" target="BaT0wegMIeFayMMjgJNc-1">
          <mxGeometry width="50" height="50" relative="1" as="geometry">
            <mxPoint x="333" y="554" as="sourcePoint" />
            <mxPoint x="368" y="502" as="targetPoint" />
          </mxGeometry>
        </mxCell>
        <mxCell id="BaT0wegMIeFayMMjgJNc-34" value="&lt;font style=&quot;font-size: 10px&quot; color=&quot;#33001a&quot;&gt;定时心跳&lt;br&gt;掉线检测&lt;/font&gt;" style="text;html=1;align=center;verticalAlign=middle;resizable=0;points=[];autosize=1;strokeColor=none;fillColor=none;fontSize=10;fontColor=#FF3333;" vertex="1" parent="1">
          <mxGeometry x="369" y="507" width="58" height="28" as="geometry" />
        </mxCell>
        <mxCell id="BaT0wegMIeFayMMjgJNc-35" value="独唱" style="text;html=1;align=center;verticalAlign=middle;resizable=0;points=[];autosize=1;strokeColor=none;fillColor=none;fontSize=10;fontColor=#FF0000;" vertex="1" parent="1">
          <mxGeometry x="335" y="590" width="34" height="16" as="geometry" />
        </mxCell>
        <mxCell id="BaT0wegMIeFayMMjgJNc-36" value="合唱" style="text;html=1;align=center;verticalAlign=middle;resizable=0;points=[];autosize=1;strokeColor=none;fillColor=none;fontSize=10;fontColor=#FF0000;" vertex="1" parent="1">
          <mxGeometry x="436" y="588" width="34" height="16" as="geometry" />
        </mxCell>
        <mxCell id="BaT0wegMIeFayMMjgJNc-37" value="" style="endArrow=classic;html=1;rounded=0;fontSize=10;fontColor=#FF0000;strokeColor=#33001A;strokeWidth=1;exitX=0;exitY=0.5;exitDx=0;exitDy=0;" edge="1" parent="1" source="BaT0wegMIeFayMMjgJNc-29">
          <mxGeometry width="50" height="50" relative="1" as="geometry">
            <mxPoint x="219" y="849" as="sourcePoint" />
            <mxPoint x="315" y="626" as="targetPoint" />
          </mxGeometry>
        </mxCell>
        <mxCell id="BaT0wegMIeFayMMjgJNc-40" value="" style="rounded=1;whiteSpace=wrap;html=1;dashed=1;fillColor=none;strokeColor=#FF0000;strokeWidth=1.5;" vertex="1" parent="1">
          <mxGeometry x="423" y="546" width="110.75" height="102" as="geometry" />
        </mxCell>
        <mxCell id="BaT0wegMIeFayMMjgJNc-45" value="" style="endArrow=classic;html=1;rounded=0;fontSize=10;fontColor=#33001A;strokeColor=#33001A;strokeWidth=1;" edge="1" parent="1">
          <mxGeometry width="50" height="50" relative="1" as="geometry">
            <mxPoint x="3999.5999999999985" y="2734.8138267176782" as="sourcePoint" />
            <mxPoint x="3999.5999999999985" y="2754.1761732823234" as="targetPoint" />
          </mxGeometry>
        </mxCell>
        <mxCell id="BaT0wegMIeFayMMjgJNc-53" value="" style="endArrow=none;html=1;rounded=0;fontSize=10;fontColor=#33001A;strokeColor=#00CCCC;strokeWidth=2;entryX=0;entryY=0.5;entryDx=0;entryDy=0;exitX=0.5;exitY=0;exitDx=0;exitDy=0;" edge="1" parent="1">
          <mxGeometry width="50" height="50" relative="1" as="geometry">
            <mxPoint x="1395" y="2548" as="sourcePoint" />
            <mxPoint x="1536" y="1863.5" as="targetPoint" />
            <Array as="points">
              <mxPoint x="1395" y="1863" />
            </Array>
          </mxGeometry>
        </mxCell>
        <mxCell id="BaT0wegMIeFayMMjgJNc-58" value="" style="endArrow=none;html=1;rounded=0;fontSize=10;fontColor=#33001A;strokeColor=#00CCCC;strokeWidth=2;exitX=1;exitY=0.5;exitDx=0;exitDy=0;entryX=0;entryY=0.5;entryDx=0;entryDy=0;" edge="1" parent="1">
          <mxGeometry width="50" height="50" relative="1" as="geometry">
            <mxPoint x="1630" y="1863.5" as="sourcePoint" />
            <mxPoint x="2085.9999999999995" y="1863.5" as="targetPoint" />
          </mxGeometry>
        </mxCell>
        <mxCell id="BaT0wegMIeFayMMjgJNc-60" value="" style="endArrow=none;html=1;rounded=0;fontSize=10;fontColor=#33001A;strokeColor=#00CCCC;strokeWidth=2;exitX=0.5;exitY=1;exitDx=0;exitDy=0;entryX=0.5;entryY=0;entryDx=0;entryDy=0;" edge="1" parent="1">
          <mxGeometry width="50" height="50" relative="1" as="geometry">
            <mxPoint x="2262" y="1362" as="sourcePoint" />
            <mxPoint x="2262" y="1732" as="targetPoint" />
          </mxGeometry>
        </mxCell>
        <mxCell id="BaT0wegMIeFayMMjgJNc-63" value="" style="endArrow=none;html=1;rounded=0;fontSize=10;fontColor=#33001A;strokeColor=#00CCCC;strokeWidth=2;exitX=0.5;exitY=1;exitDx=0;exitDy=0;entryX=0.5;entryY=0;entryDx=0;entryDy=0;" edge="1" parent="1">
          <mxGeometry width="50" height="50" relative="1" as="geometry">
            <mxPoint x="2262" y="1225" as="sourcePoint" />
            <mxPoint x="2262" y="1308" as="targetPoint" />
          </mxGeometry>
        </mxCell>
        <mxCell id="BaT0wegMIeFayMMjgJNc-64" value="" style="rounded=1;whiteSpace=wrap;html=1;shadow=0;fontSize=10;strokeColor=#b85450;strokeWidth=1.5;fillColor=#f8cecc;opacity=30;" vertex="1" parent="1">
          <mxGeometry x="1534" y="2820" width="217" height="107" as="geometry" />
        </mxCell>
        <mxCell id="BaT0wegMIeFayMMjgJNc-65" value="" style="rounded=1;whiteSpace=wrap;html=1;shadow=0;fontSize=10;strokeColor=#b85450;strokeWidth=1.5;fillColor=#f8cecc;opacity=30;" vertex="1" parent="1">
          <mxGeometry x="2481" y="2820" width="217" height="107" as="geometry" />
        </mxCell>
        <mxCell id="BaT0wegMIeFayMMjgJNc-72" style="edgeStyle=orthogonalEdgeStyle;rounded=0;orthogonalLoop=1;jettySize=auto;html=1;exitX=0.5;exitY=1;exitDx=0;exitDy=0;entryX=0.5;entryY=0;entryDx=0;entryDy=0;fontSize=10;fontColor=#33001A;strokeColor=#d6b656;strokeWidth=2;fillColor=#fff2cc;" edge="1" parent="1" source="BaT0wegMIeFayMMjgJNc-68" target="BaT0wegMIeFayMMjgJNc-79">
          <mxGeometry relative="1" as="geometry">
            <mxPoint x="747.0000000000002" y="404.0000000000001" as="targetPoint" />
          </mxGeometry>
        </mxCell>
        <mxCell id="BaT0wegMIeFayMMjgJNc-68" value="" style="rounded=1;whiteSpace=wrap;html=1;strokeColor=#d6b656;strokeWidth=1.5;fillColor=#fff2cc;shadow=1;verticalAlign=top;" vertex="1" parent="1">
          <mxGeometry x="714" y="286" width="191" height="32" as="geometry" />
        </mxCell>
        <mxCell id="BaT0wegMIeFayMMjgJNc-73" style="edgeStyle=orthogonalEdgeStyle;rounded=0;orthogonalLoop=1;jettySize=auto;html=1;exitX=0.5;exitY=1;exitDx=0;exitDy=0;entryX=0.5;entryY=0;entryDx=0;entryDy=0;fontSize=10;fontColor=#33001A;strokeColor=#d6b656;strokeWidth=2;fillColor=#fff2cc;" edge="1" parent="1">
          <mxGeometry relative="1" as="geometry">
            <mxPoint x="809.31" y="480" as="sourcePoint" />
            <mxPoint x="809.31" y="500" as="targetPoint" />
          </mxGeometry>
        </mxCell>
        <mxCell id="BaT0wegMIeFayMMjgJNc-77" value="&lt;font style=&quot;font-size: 12px&quot;&gt;发布、送礼、点赞、关注&lt;/font&gt;" style="text;html=1;align=center;verticalAlign=middle;resizable=0;points=[];autosize=1;strokeColor=none;fillColor=none;fontSize=10;fontColor=#33001A;" vertex="1" parent="1">
          <mxGeometry x="743" y="302" width="142" height="16" as="geometry" />
        </mxCell>
        <mxCell id="BaT0wegMIeFayMMjgJNc-78" value="&lt;font style=&quot;font-size: 14px&quot;&gt;用户行为&lt;/font&gt;" style="text;html=1;align=center;verticalAlign=middle;resizable=0;points=[];autosize=1;strokeColor=none;fillColor=none;fontSize=10;fontColor=#33001A;" vertex="1" parent="1">
          <mxGeometry x="776.5" y="285" width="66" height="17" as="geometry" />
        </mxCell>
        <mxCell id="BaT0wegMIeFayMMjgJNc-79" value="在线活动匹配" style="rounded=1;whiteSpace=wrap;html=1;strokeColor=#d6b656;strokeWidth=1.5;fillColor=#fff2cc;shadow=1;verticalAlign=middle;" vertex="1" parent="1">
          <mxGeometry x="714" y="340" width="191" height="32" as="geometry" />
        </mxCell>
        <mxCell id="BaT0wegMIeFayMMjgJNc-80" value="榜单组件匹配" style="rounded=1;whiteSpace=wrap;html=1;strokeColor=#d6b656;strokeWidth=1.5;fillColor=#fff2cc;shadow=1;verticalAlign=middle;" vertex="1" parent="1">
          <mxGeometry x="714" y="394" width="191" height="32" as="geometry" />
        </mxCell>
        <mxCell id="BaT0wegMIeFayMMjgJNc-81" style="edgeStyle=orthogonalEdgeStyle;rounded=0;orthogonalLoop=1;jettySize=auto;html=1;exitX=0.5;exitY=1;exitDx=0;exitDy=0;entryX=0.5;entryY=0;entryDx=0;entryDy=0;fontSize=10;fontColor=#33001A;strokeColor=#d6b656;strokeWidth=2;fillColor=#fff2cc;" edge="1" parent="1">
          <mxGeometry relative="1" as="geometry">
            <mxPoint x="809.33" y="372" as="sourcePoint" />
            <mxPoint x="809.33" y="394" as="targetPoint" />
          </mxGeometry>
        </mxCell>
        <mxCell id="BaT0wegMIeFayMMjgJNc-82" value="指标计算、规则命中" style="rounded=1;whiteSpace=wrap;html=1;strokeColor=#d6b656;strokeWidth=1.5;fillColor=#fff2cc;shadow=1;verticalAlign=middle;" vertex="1" parent="1">
          <mxGeometry x="714" y="447" width="191" height="32" as="geometry" />
        </mxCell>
        <mxCell id="BaT0wegMIeFayMMjgJNc-83" style="edgeStyle=orthogonalEdgeStyle;rounded=0;orthogonalLoop=1;jettySize=auto;html=1;exitX=0.5;exitY=1;exitDx=0;exitDy=0;entryX=0.5;entryY=0;entryDx=0;entryDy=0;fontSize=10;fontColor=#33001A;strokeColor=#d6b656;strokeWidth=2;fillColor=#fff2cc;" edge="1" parent="1">
          <mxGeometry relative="1" as="geometry">
            <mxPoint x="809.3299999999999" y="425.5" as="sourcePoint" />
            <mxPoint x="809.3299999999999" y="447.5" as="targetPoint" />
          </mxGeometry>
        </mxCell>
        <mxCell id="BaT0wegMIeFayMMjgJNc-84" value="榜单中台" style="rounded=1;whiteSpace=wrap;html=1;strokeColor=#99FFFF;strokeWidth=1.5;fillColor=#FF0000;shadow=1;verticalAlign=middle;" vertex="1" parent="1">
          <mxGeometry x="714" y="500" width="191" height="32" as="geometry" />
        </mxCell>
        <mxCell id="BaT0wegMIeFayMMjgJNc-85" value="&lt;font style=&quot;font-size: 16px&quot;&gt;&lt;b&gt;事件驱动&lt;/b&gt;&lt;/font&gt;" style="rounded=1;whiteSpace=wrap;html=1;strokeColor=#d6b656;strokeWidth=1;fillColor=#fff2cc;shadow=0;verticalAlign=middle;arcSize=7;" vertex="1" parent="1">
          <mxGeometry x="1176" y="265" width="378" height="50" as="geometry" />
        </mxCell>
        <mxCell id="BaT0wegMIeFayMMjgJNc-86" value="HTTP RPC MQ Job&amp;nbsp;" style="text;html=1;align=center;verticalAlign=middle;resizable=0;points=[];autosize=1;strokeColor=none;fillColor=none;fontSize=14;fontColor=#33001A;" vertex="1" parent="1">
          <mxGeometry x="1418" y="294" width="137" height="21" as="geometry" />
        </mxCell>
        <mxCell id="BaT0wegMIeFayMMjgJNc-88" value="&lt;span style=&quot;font-size: 16px&quot;&gt;&lt;b&gt;分发器&lt;/b&gt;&lt;/span&gt;&lt;br style=&quot;font-size: 16px&quot;&gt;&lt;span style=&quot;font-size: 16px&quot;&gt;统一协议转换，转发到不同的WorkFlow&lt;/span&gt;" style="rounded=1;whiteSpace=wrap;html=1;strokeColor=#d6b656;strokeWidth=1;fillColor=#fff2cc;shadow=0;verticalAlign=middle;arcSize=7;" vertex="1" parent="1">
          <mxGeometry x="1176" y="340" width="379" height="50" as="geometry" />
        </mxCell>
        <mxCell id="BaT0wegMIeFayMMjgJNc-89" value="&lt;span style=&quot;font-size: 16px&quot;&gt;&lt;font color=&quot;#ff3333&quot;&gt;WorkFlow Group&lt;/font&gt;&lt;/span&gt;" style="rounded=1;whiteSpace=wrap;html=1;strokeColor=#d6b656;strokeWidth=1;fillColor=#fff2cc;shadow=0;verticalAlign=bottom;arcSize=2;" vertex="1" parent="1">
          <mxGeometry x="1176" y="412" width="379" height="172" as="geometry" />
        </mxCell>
        <mxCell id="BaT0wegMIeFayMMjgJNc-116" value="&lt;font color=&quot;#000000&quot;&gt;.....&lt;br&gt;&lt;/font&gt;" style="text;html=1;align=center;verticalAlign=middle;resizable=0;points=[];autosize=1;strokeColor=none;fillColor=none;fontSize=16;fontColor=#FFFFFF;" vertex="1" parent="1">
          <mxGeometry x="1404.5" y="475" width="32" height="23" as="geometry" />
        </mxCell>
        <mxCell id="BaT0wegMIeFayMMjgJNc-122" value="" style="group" vertex="1" connectable="0" parent="1">
          <mxGeometry x="1184" y="422.75" width="105" height="132.5" as="geometry" />
        </mxCell>
        <mxCell id="BaT0wegMIeFayMMjgJNc-97" value="&lt;span style=&quot;font-size: 16px&quot;&gt;WorkFlow1&lt;br&gt;&lt;/span&gt;" style="rounded=1;whiteSpace=wrap;html=1;strokeColor=#99FFFF;strokeWidth=1;fillColor=#E3FFFF;shadow=0;verticalAlign=top;arcSize=7;" vertex="1" parent="BaT0wegMIeFayMMjgJNc-122">
          <mxGeometry width="105" height="132.5" as="geometry" />
        </mxCell>
        <mxCell id="BaT0wegMIeFayMMjgJNc-98" value="&lt;span&gt;人群过滤&lt;br&gt;&lt;/span&gt;" style="rounded=1;whiteSpace=wrap;html=1;strokeColor=#000000;strokeWidth=1;fillColor=#FFFFFF;shadow=0;verticalAlign=middle;arcSize=7;" vertex="1" parent="BaT0wegMIeFayMMjgJNc-122">
          <mxGeometry x="18.5" y="33" width="68" height="20.5" as="geometry" />
        </mxCell>
        <mxCell id="BaT0wegMIeFayMMjgJNc-119" value="&lt;span&gt;指标计算&lt;br&gt;&lt;/span&gt;" style="rounded=1;whiteSpace=wrap;html=1;strokeColor=#000000;strokeWidth=1;fillColor=#FFFFFF;shadow=0;verticalAlign=middle;arcSize=7;" vertex="1" parent="BaT0wegMIeFayMMjgJNc-122">
          <mxGeometry x="18.5" y="57.5" width="68" height="20.5" as="geometry" />
        </mxCell>
        <mxCell id="BaT0wegMIeFayMMjgJNc-120" value="规则匹配" style="rounded=1;whiteSpace=wrap;html=1;strokeColor=#000000;strokeWidth=1;fillColor=#FFFFFF;shadow=0;verticalAlign=middle;arcSize=7;" vertex="1" parent="BaT0wegMIeFayMMjgJNc-122">
          <mxGeometry x="18.5" y="81.75" width="68" height="20.5" as="geometry" />
        </mxCell>
        <mxCell id="BaT0wegMIeFayMMjgJNc-121" value="人群触达" style="rounded=1;whiteSpace=wrap;html=1;strokeColor=#000000;strokeWidth=1;fillColor=#FFFFFF;shadow=0;verticalAlign=middle;arcSize=7;" vertex="1" parent="BaT0wegMIeFayMMjgJNc-122">
          <mxGeometry x="18.5" y="106.5" width="68" height="20.5" as="geometry" />
        </mxCell>
        <mxCell id="BaT0wegMIeFayMMjgJNc-123" value="" style="group" vertex="1" connectable="0" parent="1">
          <mxGeometry x="1298" y="422.75" width="105" height="132.5" as="geometry" />
        </mxCell>
        <mxCell id="BaT0wegMIeFayMMjgJNc-124" value="&lt;span style=&quot;font-size: 16px&quot;&gt;WorkFlow2&lt;br&gt;&lt;/span&gt;" style="rounded=1;whiteSpace=wrap;html=1;strokeColor=#99FFFF;strokeWidth=1;fillColor=#E3FFFF;shadow=0;verticalAlign=top;arcSize=7;" vertex="1" parent="BaT0wegMIeFayMMjgJNc-123">
          <mxGeometry width="105" height="132.5" as="geometry" />
        </mxCell>
        <mxCell id="BaT0wegMIeFayMMjgJNc-125" value="&lt;span&gt;人群过滤&lt;br&gt;&lt;/span&gt;" style="rounded=1;whiteSpace=wrap;html=1;strokeColor=#000000;strokeWidth=1;fillColor=#FFFFFF;shadow=0;verticalAlign=middle;arcSize=7;" vertex="1" parent="BaT0wegMIeFayMMjgJNc-123">
          <mxGeometry x="18.5" y="33" width="68" height="20.5" as="geometry" />
        </mxCell>
        <mxCell id="BaT0wegMIeFayMMjgJNc-126" value="&lt;span&gt;指标计算&lt;br&gt;&lt;/span&gt;" style="rounded=1;whiteSpace=wrap;html=1;strokeColor=#000000;strokeWidth=1;fillColor=#FFFFFF;shadow=0;verticalAlign=middle;arcSize=7;" vertex="1" parent="BaT0wegMIeFayMMjgJNc-123">
          <mxGeometry x="18.5" y="57.5" width="68" height="20.5" as="geometry" />
        </mxCell>
        <mxCell id="BaT0wegMIeFayMMjgJNc-127" value="规则匹配" style="rounded=1;whiteSpace=wrap;html=1;strokeColor=#000000;strokeWidth=1;fillColor=#FFFFFF;shadow=0;verticalAlign=middle;arcSize=7;" vertex="1" parent="BaT0wegMIeFayMMjgJNc-123">
          <mxGeometry x="18.5" y="81.75" width="68" height="20.5" as="geometry" />
        </mxCell>
        <mxCell id="BaT0wegMIeFayMMjgJNc-128" value="人群触达" style="rounded=1;whiteSpace=wrap;html=1;strokeColor=#000000;strokeWidth=1;fillColor=#FFFFFF;shadow=0;verticalAlign=middle;arcSize=7;" vertex="1" parent="BaT0wegMIeFayMMjgJNc-123">
          <mxGeometry x="18.5" y="106.5" width="68" height="20.5" as="geometry" />
        </mxCell>
        <mxCell id="BaT0wegMIeFayMMjgJNc-129" value="" style="group" vertex="1" connectable="0" parent="1">
          <mxGeometry x="1439" y="422.75" width="105" height="132.5" as="geometry" />
        </mxCell>
        <mxCell id="BaT0wegMIeFayMMjgJNc-130" value="&lt;span style=&quot;font-size: 16px&quot;&gt;WorkFlowN&lt;br&gt;&lt;/span&gt;" style="rounded=1;whiteSpace=wrap;html=1;strokeColor=#99FFFF;strokeWidth=1;fillColor=#E3FFFF;shadow=0;verticalAlign=top;arcSize=7;" vertex="1" parent="BaT0wegMIeFayMMjgJNc-129">
          <mxGeometry width="105" height="132.5" as="geometry" />
        </mxCell>
        <mxCell id="BaT0wegMIeFayMMjgJNc-131" value="&lt;span&gt;人群过滤&lt;br&gt;&lt;/span&gt;" style="rounded=1;whiteSpace=wrap;html=1;strokeColor=#000000;strokeWidth=1;fillColor=#FFFFFF;shadow=0;verticalAlign=middle;arcSize=7;" vertex="1" parent="BaT0wegMIeFayMMjgJNc-129">
          <mxGeometry x="18.5" y="33" width="68" height="20.5" as="geometry" />
        </mxCell>
        <mxCell id="BaT0wegMIeFayMMjgJNc-132" value="&lt;span&gt;指标计算&lt;br&gt;&lt;/span&gt;" style="rounded=1;whiteSpace=wrap;html=1;strokeColor=#000000;strokeWidth=1;fillColor=#FFFFFF;shadow=0;verticalAlign=middle;arcSize=7;" vertex="1" parent="BaT0wegMIeFayMMjgJNc-129">
          <mxGeometry x="18.5" y="57.5" width="68" height="20.5" as="geometry" />
        </mxCell>
        <mxCell id="BaT0wegMIeFayMMjgJNc-133" value="规则匹配" style="rounded=1;whiteSpace=wrap;html=1;strokeColor=#000000;strokeWidth=1;fillColor=#FFFFFF;shadow=0;verticalAlign=middle;arcSize=7;" vertex="1" parent="BaT0wegMIeFayMMjgJNc-129">
          <mxGeometry x="18.5" y="81.75" width="68" height="20.5" as="geometry" />
        </mxCell>
        <mxCell id="BaT0wegMIeFayMMjgJNc-134" value="人群触达" style="rounded=1;whiteSpace=wrap;html=1;strokeColor=#000000;strokeWidth=1;fillColor=#FFFFFF;shadow=0;verticalAlign=middle;arcSize=7;" vertex="1" parent="BaT0wegMIeFayMMjgJNc-129">
          <mxGeometry x="18.5" y="106.5" width="68" height="20.5" as="geometry" />
        </mxCell>
        <mxCell id="BaT0wegMIeFayMMjgJNc-135" style="edgeStyle=orthogonalEdgeStyle;rounded=0;orthogonalLoop=1;jettySize=auto;html=1;exitX=0.5;exitY=1;exitDx=0;exitDy=0;fontSize=12;fontColor=#000000;strokeColor=#00CCCC;strokeWidth=2;" edge="1" parent="1" source="BaT0wegMIeFayMMjgJNc-89" target="BaT0wegMIeFayMMjgJNc-89">
          <mxGeometry relative="1" as="geometry" />
        </mxCell>
        <mxCell id="BaT0wegMIeFayMMjgJNc-152" value="" style="group" vertex="1" connectable="0" parent="1">
          <mxGeometry x="1176" y="604" width="581" height="50" as="geometry" />
        </mxCell>
        <mxCell id="BaT0wegMIeFayMMjgJNc-136" value="" style="rounded=1;whiteSpace=wrap;html=1;strokeColor=#d6b656;strokeWidth=1;fillColor=#fff2cc;shadow=0;verticalAlign=middle;arcSize=7;labelPosition=left;verticalLabelPosition=middle;align=right;labelBorderColor=none;horizontal=1;" vertex="1" parent="BaT0wegMIeFayMMjgJNc-152">
          <mxGeometry width="581" height="50" as="geometry" />
        </mxCell>
        <mxCell id="BaT0wegMIeFayMMjgJNc-137" value="&lt;font style=&quot;font-size: 16px&quot;&gt;&lt;b&gt;执行引擎&lt;/b&gt;&lt;/font&gt;" style="text;html=1;align=center;verticalAlign=middle;resizable=0;points=[];autosize=1;strokeColor=none;fillColor=none;fontSize=12;fontColor=#000000;" vertex="1" parent="BaT0wegMIeFayMMjgJNc-152">
          <mxGeometry x="6" y="15.5" width="74" height="20" as="geometry" />
        </mxCell>
        <mxCell id="BaT0wegMIeFayMMjgJNc-145" value="&lt;span&gt;活动编排&lt;br&gt;&lt;/span&gt;" style="rounded=1;whiteSpace=wrap;html=1;strokeColor=#000000;strokeWidth=1;fillColor=#FFFFFF;shadow=0;verticalAlign=middle;arcSize=7;" vertex="1" parent="BaT0wegMIeFayMMjgJNc-152">
          <mxGeometry x="100" y="12" width="74" height="27" as="geometry" />
        </mxCell>
        <mxCell id="BaT0wegMIeFayMMjgJNc-146" value="&lt;span&gt;活动解析&lt;br&gt;&lt;/span&gt;" style="rounded=1;whiteSpace=wrap;html=1;strokeColor=#000000;strokeWidth=1;fillColor=#FFFFFF;shadow=0;verticalAlign=middle;arcSize=7;" vertex="1" parent="BaT0wegMIeFayMMjgJNc-152">
          <mxGeometry x="215" y="12" width="74" height="27" as="geometry" />
        </mxCell>
        <mxCell id="BaT0wegMIeFayMMjgJNc-149" style="edgeStyle=orthogonalEdgeStyle;rounded=0;orthogonalLoop=1;jettySize=auto;html=1;exitX=1;exitY=0.5;exitDx=0;exitDy=0;entryX=0;entryY=0.5;entryDx=0;entryDy=0;fontSize=16;fontColor=#000000;strokeColor=#00CCCC;strokeWidth=2;" edge="1" parent="BaT0wegMIeFayMMjgJNc-152" source="BaT0wegMIeFayMMjgJNc-145" target="BaT0wegMIeFayMMjgJNc-146">
          <mxGeometry relative="1" as="geometry" />
        </mxCell>
        <mxCell id="BaT0wegMIeFayMMjgJNc-147" value="&lt;span&gt;活动执行&lt;br&gt;&lt;/span&gt;" style="rounded=1;whiteSpace=wrap;html=1;strokeColor=#000000;strokeWidth=1;fillColor=#FFFFFF;shadow=0;verticalAlign=middle;arcSize=7;" vertex="1" parent="BaT0wegMIeFayMMjgJNc-152">
          <mxGeometry x="330" y="12" width="74" height="27" as="geometry" />
        </mxCell>
        <mxCell id="BaT0wegMIeFayMMjgJNc-150" style="edgeStyle=orthogonalEdgeStyle;rounded=0;orthogonalLoop=1;jettySize=auto;html=1;exitX=1;exitY=0.5;exitDx=0;exitDy=0;entryX=0;entryY=0.5;entryDx=0;entryDy=0;fontSize=16;fontColor=#000000;strokeColor=#00CCCC;strokeWidth=2;" edge="1" parent="BaT0wegMIeFayMMjgJNc-152" source="BaT0wegMIeFayMMjgJNc-146" target="BaT0wegMIeFayMMjgJNc-147">
          <mxGeometry relative="1" as="geometry" />
        </mxCell>
        <mxCell id="BaT0wegMIeFayMMjgJNc-148" value="&lt;span&gt;活动触达&lt;br&gt;&lt;/span&gt;" style="rounded=1;whiteSpace=wrap;html=1;strokeColor=#000000;strokeWidth=1;fillColor=#FFFFFF;shadow=0;verticalAlign=middle;arcSize=7;" vertex="1" parent="BaT0wegMIeFayMMjgJNc-152">
          <mxGeometry x="445" y="12" width="74" height="27" as="geometry" />
        </mxCell>
        <mxCell id="BaT0wegMIeFayMMjgJNc-151" style="edgeStyle=orthogonalEdgeStyle;rounded=0;orthogonalLoop=1;jettySize=auto;html=1;exitX=1;exitY=0.5;exitDx=0;exitDy=0;entryX=0;entryY=0.5;entryDx=0;entryDy=0;fontSize=16;fontColor=#000000;strokeColor=#00CCCC;strokeWidth=2;" edge="1" parent="BaT0wegMIeFayMMjgJNc-152" source="BaT0wegMIeFayMMjgJNc-147" target="BaT0wegMIeFayMMjgJNc-148">
          <mxGeometry relative="1" as="geometry" />
        </mxCell>
        <mxCell id="BaT0wegMIeFayMMjgJNc-153" value="" style="group" vertex="1" connectable="0" parent="1">
          <mxGeometry x="1176" y="665" width="581" height="50" as="geometry" />
        </mxCell>
        <mxCell id="BaT0wegMIeFayMMjgJNc-154" value="" style="rounded=1;whiteSpace=wrap;html=1;strokeColor=#d6b656;strokeWidth=1;fillColor=#FFCCCC;shadow=0;verticalAlign=middle;arcSize=7;labelPosition=left;verticalLabelPosition=middle;align=right;labelBorderColor=none;horizontal=1;" vertex="1" parent="BaT0wegMIeFayMMjgJNc-153">
          <mxGeometry width="581" height="50" as="geometry" />
        </mxCell>
        <mxCell id="BaT0wegMIeFayMMjgJNc-155" value="&lt;span style=&quot;font-size: 16px&quot;&gt;&lt;b&gt;数据体系&lt;/b&gt;&lt;/span&gt;" style="text;html=1;align=center;verticalAlign=middle;resizable=0;points=[];autosize=1;strokeColor=none;fillColor=none;fontSize=12;fontColor=#000000;" vertex="1" parent="BaT0wegMIeFayMMjgJNc-153">
          <mxGeometry x="6" y="15.5" width="74" height="20" as="geometry" />
        </mxCell>
        <mxCell id="BaT0wegMIeFayMMjgJNc-156" value="&lt;span&gt;数据采集&lt;br&gt;&lt;/span&gt;" style="rounded=1;whiteSpace=wrap;html=1;strokeColor=#000000;strokeWidth=1;fillColor=#FFFFFF;shadow=0;verticalAlign=middle;arcSize=7;" vertex="1" parent="BaT0wegMIeFayMMjgJNc-153">
          <mxGeometry x="100" y="12" width="74" height="27" as="geometry" />
        </mxCell>
        <mxCell id="BaT0wegMIeFayMMjgJNc-157" value="&lt;span&gt;数据监控&lt;br&gt;&lt;/span&gt;" style="rounded=1;whiteSpace=wrap;html=1;strokeColor=#000000;strokeWidth=1;fillColor=#FFFFFF;shadow=0;verticalAlign=middle;arcSize=7;" vertex="1" parent="BaT0wegMIeFayMMjgJNc-153">
          <mxGeometry x="215" y="12" width="74" height="27" as="geometry" />
        </mxCell>
        <mxCell id="BaT0wegMIeFayMMjgJNc-159" value="&lt;span&gt;数据分析&lt;br&gt;&lt;/span&gt;" style="rounded=1;whiteSpace=wrap;html=1;strokeColor=#000000;strokeWidth=1;fillColor=#FFFFFF;shadow=0;verticalAlign=middle;arcSize=7;" vertex="1" parent="BaT0wegMIeFayMMjgJNc-153">
          <mxGeometry x="330" y="12" width="74" height="27" as="geometry" />
        </mxCell>
        <mxCell id="BaT0wegMIeFayMMjgJNc-161" value="&lt;span&gt;数据处理&lt;br&gt;&lt;/span&gt;" style="rounded=1;whiteSpace=wrap;html=1;strokeColor=#000000;strokeWidth=1;fillColor=#FFFFFF;shadow=0;verticalAlign=middle;arcSize=7;" vertex="1" parent="BaT0wegMIeFayMMjgJNc-153">
          <mxGeometry x="445" y="12" width="74" height="27" as="geometry" />
        </mxCell>
        <mxCell id="BaT0wegMIeFayMMjgJNc-163" value="" style="group;fillColor=none;" vertex="1" connectable="0" parent="1">
          <mxGeometry x="1176" y="726" width="581" height="51" as="geometry" />
        </mxCell>
        <mxCell id="BaT0wegMIeFayMMjgJNc-164" value="" style="rounded=1;whiteSpace=wrap;html=1;strokeColor=#d6b656;strokeWidth=1;fillColor=#FFE6CC;shadow=0;verticalAlign=middle;arcSize=7;labelPosition=left;verticalLabelPosition=middle;align=right;labelBorderColor=none;horizontal=1;" vertex="1" parent="BaT0wegMIeFayMMjgJNc-163">
          <mxGeometry width="581" height="50" as="geometry" />
        </mxCell>
        <mxCell id="BaT0wegMIeFayMMjgJNc-165" value="&lt;span style=&quot;font-size: 16px&quot;&gt;&lt;b&gt;底层存储&lt;/b&gt;&lt;/span&gt;" style="text;html=1;align=center;verticalAlign=middle;resizable=0;points=[];autosize=1;strokeColor=none;fillColor=none;fontSize=12;fontColor=#000000;" vertex="1" parent="BaT0wegMIeFayMMjgJNc-163">
          <mxGeometry x="6" y="15.5" width="74" height="20" as="geometry" />
        </mxCell>
        <mxCell id="BaT0wegMIeFayMMjgJNc-170" style="edgeStyle=orthogonalEdgeStyle;rounded=0;orthogonalLoop=1;jettySize=auto;html=1;exitX=1;exitY=0.5;exitDx=0;exitDy=0;entryX=0;entryY=0.5;entryDx=0;entryDy=0;fontSize=16;fontColor=#000000;strokeColor=#00CCCC;strokeWidth=2;" edge="1" parent="BaT0wegMIeFayMMjgJNc-163" target="BaT0wegMIeFayMMjgJNc-169">
          <mxGeometry relative="1" as="geometry">
            <mxPoint x="289.00000000000045" y="25.5" as="sourcePoint" />
          </mxGeometry>
        </mxCell>
        <mxCell id="BaT0wegMIeFayMMjgJNc-174" value="" style="shape=image;verticalLabelPosition=bottom;labelBackgroundColor=default;verticalAlign=top;aspect=fixed;imageAspect=0;image=data:image/png,iVBORw0KGgoAAAANSUhEUgAAAMgAAADICAYAAACtWK6eAAAAAXNSR0IArs4c6QAAGJtJREFUeF7tXWusHVUVXvv0EsojJsTQIgQQfiDyCDVoeAXlkai9npnmSoJtY1FeCUYUfhCUojEGaQX+lIrRhFeNpBeb6E1nH1sxAUSjglqsAbH1B7VWYrhGCCIF0nPOMt/x7GbfuTNn9syZmXNmztrJjdizH2t9e3+z9mPttRVVPHmedwoRnaaUOpmZT2Lm9ymllhHRe4noOCJ6DxEdS0RHE9FSIjqCiJYQkaq46mWLz0TUIaJDRPQOER0kov8S0X+I6HUi+jczzyul/qmUeoWZDxDRPq3138sWNM/2KjNIZmZmlrXb7fOVUiuY+VwiOouIPtAf9HliInXliwDItJeIXlJKvcDMu6empnbNzc3N59tMMbWNLUGmp6dPXbJkyeVE9FFmvkQpdUYxEEito0CAmf+qlPo1Ef2y0+k8vWPHjv2jkCOpzbEiSLPZvIiIvEajsZKZVyQJL7/XBwGl1O5ut7uTiHSr1frtuGg2coKsWrXqLGZe0+12rxYrMS7DYrRywLo0Go1tSqnZ7du3vzRKaUZGEM/zQIjrmPkTowRA2h5vBJRSTzDzI1rrbaOQtHSCNJvNLyqlbiaiM0ehsLRZWQT2MPMDrVbru2VqUBpBms3mTUqp27ElW6aC0lbtENjHzPe2Wq3vl6FZ4QTxff9TzPxNIjq/DIWkjYlBYJdS6htBEPy0SI0LI8jKlSuPn5qaupeIPl+kAlL3xCOwpd1u375z585/FYFEIQTxPG8NEW0iIpxoSxIEikYAh463aq1n824od4J4nreZiL6Ut6BSnyDggMB3tNZfdsjnnCU3gvRPvn9ARB9zbl0yCgL5I/BMp9P5XF4n87kQxPf9S5gZ5u3k/PWVGgWB1AgcUEqtCYIArixDpaEJ0mw2PaXUj/teskMJI4UFgRwROMTMV7VaLT1MnUMRxPf9TzMzyCFJEBhLBJRSVwVB8JOswmUmSN9yBFkblnKCQFkIMLOf1ZJkIkh/zfG0TKvK6mJpZ0gEDimlLs+yJklNkP5u1a9kQT5kl0nxshE40Ol0Lk27u5WaIJ7n/UK2csvuW2kvJwSe0VpflqauVASRQ8A00EreMUUg1WGiM0H67iNbx1RpEUsQSIPAWle3FCeC9B0PXxTfqjR9IHnHGIH5drt9jouDoxNBPM97VLxyx7i7RbQsCGzRWl+bVDCRIP37HK2kiuR3QaBqCCilmkn3SRIJ4nneH+SyU9W6XuR1RGCX1vrDg/IOJEj/muz3HBuTbIJA5RBg5i8Mur47kCCe570sd8gr1+cicDoEEB719LgisQTpRx95IF1bklsQqB4CzHxzXLSUWIJ4nvcXCc1Tvc4WiTMhsEdr/cGokpEEQVA3IvpRpqakkCBQTQQ+ExWcLpIgvu//TCIeVrOXRepsCCCCYxAEnwyXXkQQxMrtdrt/ztaMlBIEqotAo9E4OxwLeBFBfN+/i5m/Vl01RXJBIBsCSqlvBUHwdbv0IoI0m829EmU9G8BSqtoIIKp8q9XCo0yH0wKC4H0OpdRvqq2mSC8IZEeAmS+23ycJE2SDUuqO7NVLSUGg2ggw88ZWq7XeaLGAIL7v/1Fedqp2B4v0wyGAl66CIPjQIoL075r/bbjqpbQgUH0EOp3O+83d9cMWxPM8RGHHvQ9JgsCkI3Ct1noLQLAJ8ggRJV4gmXTkRP+JQOBRrfV1Cwgi27sT0fGipAMC9nZvz4LMzMwsa7fbrzqUlSyCwEQgMDU1tXxubm6+RxDP81YS0Y6J0FyUFATcEJjWWu/sEcT3/TuYeYNbOclVRQSOOeYYWrNmDV155ZWE/56fn6cnn3yy94f/lrQQAaXU+iAINhoLgnhXeDZNUk0RWL9+PV144YWR2oEks7OzQpSF6MxqrdcaguwmovNqOjYmXq1zzz2X7r777sM4wGIsW7b4+UgQ5dlnn6Xnnntu4jEjoj9prVcYgrxNREsFlXoigKkV/pBuvfVWevnllwmkwb+dc845i5R+6623ekTB34svvkj4/xOY3tFaH6U8zzuFiPZPIAATozKmVphiId1///29dYdJg4hi8hiyPPXUUxODWV/RU0EQPLqJiO2SaozAQw891JtWYXp1yy23LLIK+G3VqlV0wQUXRE6/AA0sSRAEvb8JsSqXKd/3P8vMP6zx2BDV/r9TSTfccEMPC1iCTZvwjH10Ov3003tEwf/Cwhx99NGLMoIkWNjXmShKqXWwIF8hom/LKKo/Ahs2bDi85rjzzjvphRdecFIaRAHBrrjiigX5QQ6QBGSpafqqajabm5RSt9RUQVHLQgAD3ViOuKnWIMAwDVu7du0iooBoWNvU7TyFme+HBZEzkAmi0Y033gjPiZ7G+PrjL5ywuzXoABFEwW6YvQMGawKSYEFfozQLgjxBRB+vkVKiygAEcIr+8MMPH15XYF1if/nxOwY6SICpExb3ccle15g84V2yinfGz0GQ3xHRRyquiIifAgH7XCTKitgHi+bcZNCCHrtip5122uEsScRKIeqos/4eBNlDRAsiOYxaKmm/WARsKwLrYXa37FYxFYPf1urVqxOFQX3YALBJgikarEnF014Q5B9EdFLFFRHxUyJgWxEM7vDaAYMeB4z2oeKgJqJIUoPp1isgyGtEdFxKfCV7xRGw1xrwvbJ9tbKqFkWSKPJlrX8E5V4HQQ4S0VEjaFyaHDECmEJh/YAUXqxnFS1MEuxu4cwF/l8VTG+DIIeIaKqCwovIOSBgXFCSTtfTNIUdsM2bNx/eKdu3b1/PF6yCp+5tEKRrB29IA4TkrT4CthVJc7qepLldL/LGnbkk1TPi3xkE4RELIc2PEAGXHa2s4oFw8OkyKWnLOGs7RZYTghSJbkXqtne0MOXKy7cqfCgJlxSQpkpJCFKl3ipI1iKtSHiqVbWtXyFIQYOuatXaPlqwKHkuqM1GADCJO5gcV7yEIOPaMyXLZU+z8lysQ40qWxEhSMkDcVybswmS15mIrWtVrYgQZFxHbMly2QSBl27eqapWRAiS90ioaH3mtiGimJgAD3mrYluRquxoCUHyHgUVrQ+7S/DGLfJAL2xF8l7rFAG9EKQIVCtYpzn7KHrQ2lYkT/eWoiAXghSFbMXqLYsg4VuIRWwI5Am9ECRPNCtalx3MoWgLEj5dH3crIgSp6KDOU2z7im2YICAPFu1RweayymDvmKGOcfbREoJk7eUalRtEELNm0FrTgw8+mIvWcIe3g0HAHd7cS8mlgRwrEYLkCGZVq7IJYvtK2TF98/7Sw2rYgejyJGCe/SAEyRPNitZlE8QeqOFBnOeXPmxFAN04OjIKQSo6qPMUGwtnE0DOJoE5G7HbytMd3naQNG0UeQ6TBTMhSBbUaljGJoPZerXvhRw8eLB3hRZevvg9L2/f8KUqQDtOoUyFIDUc7FlUsk+58RWHy4kd6QT/Zh7hyXtrFmcj+Au/eoWQQ2jLNch2Fr2TyghBkhCaoN/tU25MtUwgOBMWyP69iPMSbCmDqOE3SkCQxx9/fCREEYJMEAGSVMUAhdNi+D0QE9vKXsznuWCPkgtEgcWyrcooQpoKQZJGzYT9jq1d7F4ZkoS9e4u6vx4Hc9g1BcTE1K+spxaEIBNGABd1sasFa4GvN9YB4QW52f7Ne8EeJxssmx0gG+3i/5dBEiGIy4iRPIsQMCTJe8E+CGp7W7isYHRCEBn8mREwA7aIBbstFCwaNgzMIt5sHpRx6UoIknl4SEEggMU01gl5+lKBENjJwjTPTPXi0M7z4DKqDSGIjPOhEcCXHc+x5RFwDnVhEQ6SDErYPMA0C1akyGffhCBDDw+pIE8Eop51AxHwhwjxIEaZkeKFIHn2rtSVCwLhA0u4wZRJClsJIUguXSqV5ImAfSCJerGtC9K4vnaVpyylEwRzTNwDwE4EgDAJJhT+PnnMJ1E/Fo/h+vEVgjv3qL5GcR2H8wbM4ZcvXz5U37766qs936VB7ZiTaczx0RdxCXXZ5wyY2gxKqBeYh9Og56QH1Ye+w+6YfaqPsQFrkpejpAvYpRIkfAEnSsBh7wSEQ8tEtVH0tqQL8MiDQYXdH5vIrmXj8oV3dUAEeN8C+6SFr0vbIA0GPRbk9kANf/VNXcNgDXlx3mI/oYAPaZlTrlIJEnW/INwpw5ySRl3Cier0ov2IXAaa626NS112Hvs+RdSbgWnri8sfPqgrgiCmbZAbJDfWr8xn3UoliOs2YNbrl1EXcOI6uIjwmmkGn70QTVMuKa/9xQ7fCEwqm/Z3+xS9SIJALpB97dq15HleT8yySFIaQeIAjOqULD4+ABCDznUaMYzpTzuQwvnjpoG4lITpC+b/+EKnTcDNXl/BmkThgXbuu+8+OnDgQGITxx57LJ199tmEj09UMk8lFE0Q0zbawbQU1mSY2Uai4v0MY0kQyJb26mU4lEwSAKMkSJysw66/bJ0HTTfXrVtHb7zxRhJEC36fnp6mm266aVEZg2NZBDHWBDMA4Fi0u8nICWKucoaRT/vQStopyzgSJM8og3EDNuv0FbtJuLQUTqMgiJHBePmi74u6dThygsBSYBFmHNDsDnD9osZNWTBHtkPL2HWHCYJ89jYrzLfrmsmu1wRaG3TRJ86C5PmyU94EgY5ReIySIPa0q9YECd9/Noq7WpE464FF6qZNmyKnEjZB7NCbWQhql4kb/HZ7cXnMzb1Uc5+YzJNEkDzwiqtjLCwIrEhUdAsInTQVihsI5iZcnBWw642rI+06CPK6ECTO4uV5W04Ikg9txoYgcR2atAiD52fUQZshQNzZyygJEg7gHNWVUVMGWFT7dBt5QKqok2UhSM0IAnXMK0dh1eIWr3FTI3tqFlfnKAkC/VxO/F27GFvDmGa6nGxnXaSP8xrEFacs+cbGggwaNHHXOuMOwuzF/bgSBPpicwJTsqgNirSdGfYOEAuSFsHo/GNFEIgYt+AO7/DE7fOHF/bjTBDTJdAF1tAQBYdzUaQxV0/jut72wxKC1JQgcVOP8II5bjEczlcFgqTtyqhLRajDDtEjBEmLakUsCMTEgVQ4eJltGeLcSnDoeP311y+Yi9eRIIPWa8bHTAhSY4IkuWLEWZmoBWhdCRKHURqCNBoNOvHEE+nMM8+k448/no444gh68803af/+/bR7927qdrsLRtm4HhTmQ4UKWZC49YXZ8o1bp0TtdtWVIHHnRkkEwaUjYGLSkUceSddcc81hL1nz76+99hpt3ryZnn/++d4/LV26lLZt27ZoFJl1T5zFcvWGKHKQD1P32C3SjTJxO1SwEsbl2VY8bqerbILEyZ104Jm2E6M+Ephirl69uldV3ICN804444wz6LbbbqMTTjhhgShbt27tTXnPO+88uuuuu2IJkvRRS6vfuOQfW4LEnXHEARc3AF0Igjqjpg9p3amxNsIXMxzGH/XnRRDUbW4IhrEIx9GN8yJ47LHHaPv27fTuu+8uqAJu7Rs3blwE8T333EMXX3wxXXrppYt+sx/gjFo7ogCsFmRJurY7LqSw5RhbggxaiCYNDPt3V4IMulyEr27UoE/ToTZBsIbCIHe9u+LaTng6U/SFqfDZS9orB8AVd1/gJBqHL/LAWuYRq8AVx8oQxPWS1aCvsytB0EGYc4d3z7KAGlXGljGta76LDFGxaovUCdM5uPnYLjFFXfENW0YXPPLKU5oFiZsyJYWOTPoqJTkUpnGCxIDCtc44F/lhQC+SIIOcHKET2s7jtN7WP+5tc5AEtw/zxHAiCGLm4eFpBdzRk8LYY2cGA9f+uuMLhgVk0p2N8IV/yJEUtMGE/7cHFQgelj3pZNseUOEpVvhxmLTkw6ABbviCu8SLgjU2925AmkFTRuCDac8ga4o2MaWLSyasEMIZ2SnOS8DkCcuGfsYYqf0UK+0AiMpve+0WdUFmGDmjXkUy9eW1SB9GvrRl8VFAyB3zNmG4/CjiVKXVYdj8pU2xhhW0CuXx9cNXNWrxPeooKsPgFxXEzdRX1jsdw8g/TFkhyDDoWWXxpcU0MGqu73ozMidRCqkm/MqT3UiWKDSFCFlApUKQPqhJa5lhsE/aiBim7rLLhuMHgBzmGYKyZSmjPSFIwQRJ2hAoo5OljewICEEKJAjeF8cOTJnBlrMPBSkZhYAQpI+KceALb0u6DBv7rriJbghyjFsUeRddJM9CBIQgMiIEgQEICEFkeAgCQhAZA4JANgTEgmTDTUpNCAJCkAnpaFEzGwJCkGy4SakJQUAIMiEdLWpmQ0AIkg03KTUhCAhBJqSjRc1sCAhBsuEmpSYEASHIhHS0qJkNASFINtyk1IQgIASZkI4WNbMhIATJhpuUmhAEhCAT0tGiZjYEQBCE8FbZikspQaDWCDAIcoiIpmqtpignCGRDoA2CHCSio7KVl1KCQK0ReBsEeY2Ijqu1mqKcIJANgddBkH8Q0UnZykspQaDWCLwCguwhog/UWk1RThDIhsBeEOR3RPSRbOWllCBQawR+D4I8QUQfr7WaopwgkA2Bn4MgW4loTbbyUkoQqDUCs6rZbG5SSt1SazVFOUEgAwLMfD8syFeI6NsZyksRQaDuCHxV+b7/WWb+Yd01Ff0EgbQIKKXWwYJ8jIh+kbaw5BcEJgCBy0CQU4ho/wQoKyoKAmkROLXnxet53ttEtDRtackvCNQYgXe01kcZguwmovNqrKyoJgikReBPWusVhiByFpIWPslfdwRmtdZrewTxff8OZt5Qd41FP0HAFQGl1PogCDYaC7KSiHa4FpZ8gsAEIDCttd7ZI8jMzMyydrv96gQoLSoKAk4ITE1NLZ+bm5s/fBe92WzuVUqd4VRaMgkCNUaAmf/aarV6V0AOE8TzvEeI6Noa6y2qCQKuCDyqtb4uTJDPE9GjrjVIPkGgxghcq7XesoAg09PTpy5ZsuRvNVZaVBMEnBDodDrv37FjR8+7ZEE8LN/3/8jMK5xqkUyCQA0RUErtDoLgQ0a1BQRpNpsblFJ31FBvUUkQcEKAmTe2Wq31cQS5SCn1G6eaJJMgUEMEmPniVqv120iC4B9lu7eGvS4qOSFgb+/GEsT3/buY+WtONUomQaBGCCilvhUEwddtlRYFrV61atVZ3W73zzXSW1QRBJwQaDQaZ2/fvv2lgQTBj77v/4yZP+FUq2QSBGqAgFLqiSAIPhlWJfLZA8/zriaiH9VAb1FBEHBF4DNa621OBEEmz/P+QkRnutYu+QSBCiOwR2v9wSj5Yx/OaTabX1RKPVBhpUV0QcAJAWa+udVqfTcVQfpW5GUiOs2pFckkCFQTgX1a69PjRB/49Fqz2bxJKfW9auotUgsCyQgw8xdardb3MxGkb0X+QETnJzclOQSByiGwS2v94UFSJz7e6fv+p5i5VTnVRWBBIAEBpVQzCIKfDkWQvhXBPRHcF5EkCNQFgS1a68QLgokWBGisXLny+KmpqReJaFld0BE9JhqB+Xa7fc7OnTv/lYSCE0H6VgRviCB+liRBoOoIrNVaz7oo4UyQPkk2E9GXXCqWPILAmCLwHa31l11lS0WQPkkQCR4R4SUJAlVD4Bmt9WVphE5NkP7d9V8R0clpGpK8gsCIETjQ6XQuNXfNXWVJTRBU7Pv+Jcz8NBEd4dqQ5BMERojAIaXU5UEQ/DqtDJkIgkaazaanlArSNij5BYGyEWBmv9Vq6SztZiZI35J8mpl/nKVhKSMIlIGAUuqqIAh+krWtoQhiWRKQRKZbWXtByhWBwCFmviqr5TACDU0Qa02CfWVZuBfR1VJnWgQOKKXWZFlzhBvKhSCotL+79QPZAk7bl5I/ZwSe6XQ6n0u7WxUnQ24EMQ14nieHiTn3uFTnjECqQ0CXWnMnCBr1PA9uKZvEd8ulCyRPDgjME9Gtru4jadorhCAQoO/geK94AafpDsmbAYEt7Xb7dhfHwwx1LwxenaWCpDL9+yTflEtXSUjJ7ykR2KWU+kbSfY6UdS7KXpgFCbfUv757u9xxH7bLJr78Pma+d9A12TwRKo0gRuh+tJSbJaRQnt04EXXtYeYH4qKPFIVA6QSxdruuVkpdJxEci+raetSLiIfM/EhUULcyNBwZQYxyiAXMzGu63S4II4+IltHrY94Goqw3Go1tSqnZcKzcskUfOUFshZvN5kXYJW40Givlpauyh8Jo28PLTt1udycRaft9jtFKFXqCbdTC2O33T+YvJ6KPMvMlYl3GqXeGlwVWQikF9/Nfdjqdp/M6+R5esoU1jJUFGaTczMzMsna7fb5SagUzn0tEZxER3rJemjcoUl+uCLxDRHuJ6CWl1AvMvHtqamrX3NwcDvfGPlWGIHFIep53CraOlVInM/NJzPw+pRSir7yXiI4jovcQ0bFEdHSfTPA6XhJ+wHTse2r0AjIRdYjoEBFh0B8kov8S0X+I6HUi+jczzyul/qmUeoWZDxARwnr+ffSiZ5fgf2mUjg2JzFTnAAAAAElFTkSuQmCC;" vertex="1" parent="BaT0wegMIeFayMMjgJNc-163">
          <mxGeometry x="171" y="5.5" width="40" height="40" as="geometry" />
        </mxCell>
        <mxCell id="BaT0wegMIeFayMMjgJNc-175" value="" style="shape=image;verticalLabelPosition=bottom;labelBackgroundColor=default;verticalAlign=top;imageAspect=0;image=data:image/png,iVBORw0KGgoAAAANSUhEUgAAAMgAAADICAYAAACtWK6eAAAAAXNSR0IArs4c6QAAGZdJREFUeF7tnQfwdkdVxh+kCQjSFQURFDGGIiigFFGqBRVBAREjosA441jGMiooOjKOvYwOSlMHQRGkiLREpENIRIUEAypgCQYMBIiKGFB0fmHPl/3e7y337t363nNm7vy/5L3bztnn7u7ZU64kJ+eAc2AnB67kvHEOOAd2c8AB4rPDObCHAw4Qnx7OAQeIzwHnQBoHfAVJ45uXWgkHHCArEbQPM40DDpA0vnmplXDAAbISQfsw0zjgAEnjm5daCQccICsRtA8zjQMOkDS+eamVcMABshJB+zDTOOAASeObl1oJBxwgfQn6CySdFj03kfR+SRdLukjS30q6QNI/9dXt4+2NA6StbL9O0jdIupukL5R05YnduUTSiyW9RNJrJf3bxHL+2kwOOEBmMmzh6zeS9PWSvlbS/SV92sL6rPgrJb0qgAXAOGXigAMkEyP3VHMLSawUAILnqoWbZAv2vPC8tXBbR1+9A6SciB8kiefBkj61XDN7a35RBJaPNOrD0M06QPKK74sDIADGF+WtelFt/xKA8ieS3rioppUVdoAsF/inRysFW6neifOKbcH8cH9AWg6Q9On8lQEYrBafnV5Ns5JowgwoZzXrRecNO0DmCehzoi3U3ecV7frtcyKwvLvrnlbunANkGsO/MQLGtaYVGfKt/46A8oIhR5C50w6Q3Qy9XXS2uM1Cvv+PpKssrKN28bdFYDm/duO9tOcAOVkSXNyhluVcwQ13LnqiJL7OrER3ylXpjno+IelTMrfxwggsH81cd9fVOUA+KZ57RMC4WSGJcRdyWbg0BCg8N87UFnccz5L0FEm/L2npirerW9iAoSrmcP+mTH3vupo1A+SmkRbqnhWk9JuSvi9q59qSvj0A5X4J7WPEyDkBUPxVKP8YSU9OqCulyCuiu5UPpFQwQpk1AgRbKLvlvk5lIX2+pHdtaRMrXsDyLZJuvadPXPg9X9IzI1DEr/9p5q3hFPYAVFMXA5qjorUA5PRoC3X7hhJ8hqTvONA+qxlg+bZgovJ3ARRMQlsptlVxb0mtJ+jZEViOwiT/mAFyzWil+KaGoNhsmgvG10zsD8DGB2QK/bqk75/yYoV3/isCCqvasHSMAMG3wrZQn9uhZF4WzN1zdg2LYUBXSsGwpK/nRWCZCvYl7WUteywAwfPO1LNflZVDZSp7RNA65aqdlYMVpHfi/GTnFTR63dPoAMHxyEzKr9s9tz/ZQe4Uni3pjzP2l9XjKzLWV7oqFBUGlHNLN7ak/hEBgsaH1YLnS5YMvmLZvwiAABT/nrldLjR/ONzlZK66SnUYStrdygertDijkVEAws2wgYK/I5htcJGG4AHFe2bIJPVVfNq/VdLDJaFOHo0wvWdVgWe4D3dBvQPkDhEwmAC9EzZLCPk5kt7esLOofB8aAJPL773mcN4QbcG4+2lGPQIEgX5zAMYDmnFmesOYh9sWobf9NLf1qLjhJxeko9F/RkD5sxad7wkgqGcNGD2qK2P5vC8I7h2S3htiVvGX+FXcAfRIrMCAhae0wWSJ8b8lAku11bk1QD4jrBQAYwT17FTB461HoLdN8GCzhGkGf+3ftQB1Q0nYn/Hx4cFn/oEDekP+XwQUtrMfnyqUlPdaAQTjPDt03yCl40dUBjCx8gCYVFUtTlw28fkLEOKH/zeKGnyOaP8hAsub5xSc+m5NgNwyAsVdpnZwZe/9lKSfnTDmX90CgpqynNDF6q9goWB3Kx/O1XoNprLntdWiVXyoXPyqUQ9mI/sM/b5XEqbzPRGRUp4m6Y6SHi2JSC+tiG2tKU2m2rzt7GspgNw2AkUp551WAijdLrfs3GfsogvD6lG6H4fqZ0v41ACMzUAPD5H03ZLue6iSwr+/Lrpb+deUtnIChNXBtFAc/lrT/4Zb6/+I/tIn1MioP+25WuuObmmf+Fov3fL/mXCtQ/QQMJvVApOZQ4SxKEBhVcnlPXmozW2/Y71g2y/6P5lyAITzBFsowMH2oCYx+fGRYCnlCxE/U73cAApxreKHC8ovb/il5sKRoBGbhMnKvWoyOLSFJYCtFmjnUggXY8DS+m7rryOw4Guzl1IBgubJQFF7GeUwxkQBGK8+NMCFv6MKBSiooL9G0vUX1jen+I9K+qWoAJqo2rfKfHUBxplzOn7g3c+UhGswYGl538UOg/FhCoSV8VaaCxC+Xnbg5g6jFgEKe95Zq9GNdgAHIOHBgvgahfuBALGpsgP770h6bOE2qR7+4ufONupDhdsj2j1ggZ8t6S8l/WF4ULmfoCkAsWiCAIPb7lpERzmw8uDK2RN9nqSHhaekEoIIJd8ZBs4FWUkiKgqrxWLNT0InrxeAwlkF3rYiVmhW7d+yDuwDCAZvWIaikaht8AaaHzdIqrGnS3pUQYlyYMdM5FcKtEFwOFYLgEHcrh4Il2RWlX2avNL9/HNJj5d07jaA8MUCGPcp3Ysd9f+8pB9v1HZqsyXD7bD8AxCUCbkIUAOM3owr4/GxhYWvPC1SSeCb8l0xQDhs/0hj3fVzw4qVayLUrAfvxlkqxJqdkwTQ7GxRuenFzaEoASiPXFzTvApebQDhi/1z88pmf/vl4QCcveKKFT5B0k9XbO9QUx8LoAAYxxBfF8c5W1VQxRcnAEL8JQKRtSZAyvZqZELDte2Cr/aYuEEGFD3INefYyQJsACGbV3ECIOSx68GZhruG0vcaxRkqqbS26dAY0PoBjm7cVg91eMLv5GIBGATUq0oApLVAbcA/09n2JEUQhA7F3bYH+udoezXVqqCHflsfMM8HFCiNmrlb9wQQVI6sIiMK04T6u9G9RU+TDXdVVpUX99SpHX1hm8p9SBfRMHsCCPzChKSVennp3Olp9dg1Fj4+du/RU+xcnLtYLQg0QVinbqg3gMAYIgT+YDccmtYR7KZ+Ydqr3bzFGQWwcGZpRXxUuHPrwfp7Kw96BAgdxUEflSkKhJ6JwHW/2MjCNhdfyBhl9yNsc0sT54kzQqqH7uN39QoQE1Kve2eAYerG0hOqZv3crGN2wk17buUNGihcInKmtivOm94BYgzA3JpIhaiBW6mCcQhDHc5TXd1YfCac2gAgwaJ3Sao1PiRso3iISTAcjQKQmLF4h7F/fn14lghwn8Dwq8Z1mIdoI+yT1+hTT8oCgAJgcFA7RPCIwzarRWvnqEN9Pfj7iADZHBQplgGLeRPi8ca/Ce6GQGOXW7YNsbstVsrEi9r0KGSfjJm/08kcwLkIoGDtuklfGuzoWC16zMuSJMtjAEjSwI+w0KWS/jG4CKDC/YGCY+QS0lYVbKIw98df6OjIATKeSMmtwQMIeJis9m/zF2+RzHM8Tk7osQNkApMavIIvAlEDebYBgW3lLiJJKJ6IThk44ADJwMQFVfx9AAF/bXtkK0JKoh3OVynlFgzhuIs6QMrLF/MOAGBgYHtkIECRkJNeO3CmqZx8yFaXAyQPK4lAwnYoBgL/bUD4RJ5m9tbCofzXKrSzqiYcIPPETZqwTSAACs4JJHtpRaikAaNTZg44QPYz1G6SDRS5t0S5xImJyIhJcXKNv1g9DpBprD1H0m9I+qNpr1d9C0cz0iY45efA+x0g85hKNiiAwl6fTFGt6fbB8rl1P461/Sc5QNJFi3ceYHlFehWLS54XbMUWV+QVnMIBzpu3coAsnxkc0AEKjl416Zcl/VDNBlfWFqvzeQDk9xoE5DpWXuOTTugiDvUlifCcxxS1pCSv5taNISaWyJdfuAIQwjoSieP0uTX5+zs5QBRDYuli/VqCyGvRle92iUFWrpMLXHI/Pilu1yIrApLfXpBltfJYhmmOgNBsv35CUq7LQvITkqfQKQ8HLgvA2Kp4iWPzXlXSEyURgMApPweIuEhYUlaXVMJdFUtdp+UcQCPJ8YJtMVmnttK26O54geFv3UO0xeVs6K8GclAQB/nJCV1DIXDzhHJe5AoOcNkLMLB4xgpiL+3LD+JAOcS95b8TIOHHJGHefoh4l7RlTmkcAAyAAnBMtojYBxDrBoHcCHD9CElXSeublzrAAfItErx7mysrRUcISterkN8cAYNt1SyaAhCr8LQIKL7Mz2Lz5JdJV4DZSByEjhi175BUMyfk5A53/CJqcFaLP1jSxzkAsXauE1YTVpW7Lmncy+7lAMmE2H5xsF9DmKFc0wElBsDIosxIAUg8EHJfAxS2AE7OgZYcYKUAGFkvUJcCxBhCgDDOKIDlRi255G2vigMctrGwJukrZ43cdO1cALGOkSTegFIlA1Bujnh9Q3AA9wMDRkmr6jNyAyTmLml8WVFIY+zkHMjBAUyiWC2ynC8OdAjrkrcAECJhTAkpmTpADvIPC49vv1K5uN5y7wmgYMUg6n8NIpETJj2nAxC+9DU85VBTGlC+rMYovY2hOfCGCBgfqjSSqwU1++OsPQBCToiHSLqgUidoBjMWAwupfZ2cA3CA2Mlsofhg1845T+q3n5RETvYTZA5TRPD+HkmkD65J7PNYwQBL98lUajJmZW1hY2bAqJHEJ2YvUfwBxlbns9ij8OOSHh8yJtWWDyHzbUW5f+3Gvb1mHCDXi2mjaodNumZIuIp9206N6zaX29ZZncjFYWC5XjPRecOlOIA5jYHirFKN7KmXqwhSSz9yitPZPp/01kAhZ4dtv7iIdBqbA7gh2zYKj8jahAcmoAAcgGQSTQnaQNSOZ0p6lqR9UcUnNZj4EjmzWVVQJjiNxQFSewMMHjwsaxOJfQwYbKtm0RSAWIVvj4DSKswlkSZs+3U0WYxmSWyMlznP8kEFFLtM+EuPhLsMVotFhp5zAGIDItqDrShvLD3KHfWTOs22X/dq1Adv9lQOvDuAAnBgot+CMKAFGPxdTCkAiRvlyh9mYJrdiu4dktEDmGu06sTK2yXtgq0YtbVRxnpWCoDBypGNlgLEOoIlJQziKWk8tm/g3KMAkodLIgmnU1kO2KUeMn9Z2aZ21o51BvLm4ayRnXIBxDr23ggotexmNplCdBYDit+pZJ8yujBaLc7PX/2kGu8SybiofV9ugMSjQ9fN16W2yUDch3tG2y+MMp3SOcB5k0M3Mv1wejWLSqLFZLXIcr6Y0pOSALH2Yeyzw9Nq+4XGy1aV20xhjL9zggNEhwQYL2rEk5tGsqvuY1QDIMZXomUDFFYWHF5akFkv8xVyP5XdEmCrbKvF37QQlKS7Rat/M4uKmgCJ+cwtva0quUJyzpUjArBVpZkA5na68PtkqjJgkHy0NjEf+Xghly4+YK0AYozHitiA8s7a0gjtNV3CG415s1nU9c+Q9PxG/WELbMDoagvcGiAmD0wQbPvVwoDN+lH9ENhoQlqzRAIh2uArG/WDNA62inP52xs9txeAxIzh0slWlVqeZJuCqaZGbDAjPhrC4xAip0QkkENDwmvPQHG/Qy83/P0jku7cI0CMJ/giG1AIzdmCsPo0YRa5iKo4KJQkFpu2hTXtrSJe3rriuFObIl/OBQCESBG9B357QdB+tTRpeVDYJz84leONynG2s2jmFzXog5kCccbAMa53wruRNBOXX4ICkJECI781WlUYSAvCN8VWlZu06MDENlHPAgye2vZRWDMACMI+3Xdif3t47enB9fZS64zFxQIkT5NE3N0RCIFzn8IWrNUB84YRUHqK0vKasJViO1WbbhkBYyR7uDNDam/+nkRx4Dj22GSYGs1+CYAYWGp/KY2ZLMlmfl97Ulp7pKVmtWihqsVNmtWCVaNHbdQumZwtiVWDZytti6xINPFHS/qsVpJObJctlwGF/OEtCIcu237drEIHyHeBbRT+OWj/apJd6gEMQuaMRJjNcO/zvEOd3hV6lL31YwcFCmPGfojt1wsPMaDQ7+T0ACjE/yoxeTh4m9Na7QtWgG+rxW0L8a9EtXg5AgqeyR+TQ7F5AQr+vDBkxDTRJMy0C0jsi1oQfiqAxJ4lfUCwBozZ2ZKWNBxywdjBmw/AKITmDlBwKTo7OOIhgBgTrhxAAlB6vtzZJbRLIqAQ0rIVxWDBFH9KEAHso7AueL2kUw6RFQby0HC24Jw1EqHxNGAkW5FPBUjMGPTaAIWHW9HRCO83O6uw7LYiwIHBJE9MqBgxFATUOJ21uLtg52CrxR1aMSixXaLwsFoAjsWUAhBrFDWeAeUWi3tSvwJukw0oLW6W64/4cIt3jlxYi3rqHe7K7DeQJcDI6f6bJYEOnnoGlLvPHlb7AqwiBpSczG0/suk9wEPvDElYC4xErLSmxSthV5Y9gQ5aG8DCvnVEYp9v9l9scY6dyAZGJJDRQidxvrAgIaW2oCcS6OAPgWFgTrpjtKqMmL4YphtQ0IQdExEayWLT3mmwgb00ChhRsusnJdBhac1yoNnS4xtHkRBPyrtQcnSZ6+YuBbBwtzIyIQuAwTOCNa3xGvN820ZhRlOSmibQeUAEFtTGoxG383an0spQMoVnqJYtNu1I1hFcgNo2isDXpambBDqnRXZL+AiMRth7GVBaGUpO4RnqWdtKjRTyqPZlaLcJdK4erShfPUXiHb7Tg6HkJlswHDRgdMiynV2qHUcNawDClT5qhAQ694jAcv2RpBr62oOhJFtYtlIjOXS1iMTJlpNzN8/ND8213hLosEc2s/FRXVxrGkpyG49aHXUtK8cohAu12ZQlm4HMHCxKIgPGFBOfy6uf4pPeKoHOA8OqMuqdCuphNGA8s43kDgifryCgABwjJT/FzJyDN27etQgbMoCRtLJOAYgNpFUCndtF268RTVrgHxOD2FOA5YMLZgarhAFj8ldwQXs5ipJPxrRRtQxFcfkFFJwxMApNpjkAsUZaJdC5VgAKWzAMJkekiwNIAAvamkMekGw5ucyzZyRLaoICWs6QWhnJ4JcBg5vwxZQCkLjRVgl0uOm0VGyj+NFvCosLMLZhr9r4AYckLvJ48HsfjV4ehS+tFVYWT05WC8CR1chyKUBMeK0S6KCFMKBUj/w92swt2F+ctyymL7nPaxHXA7blLNJmLoBY51qo7axtIrMAltEsUosItlKluAkYMN5VqU1ia5n1eNZ0a9v6nxsgcRu1L36sbeJWARTOKuRad8rPAVI72/nisvzVb62RkEK2WpDzvAqVBIgNoFUCHVIaGFC4iHRaxoGPRasFqv9ahOwMGChqqlINgNiAWibQIdaXXUBi4uI0nQOkdrbVomZqZz5ubKWwEGhGNQESD7JVAh0LoAzzMZp02s0BTMvtfEGk8xqE75CtFl34wrcCiDG7VQIdzO1tRekik1GN2TehDVI722pR0/3YHOwAB34r3VBrgBgjWibQuWt0Vhnx3iHHZMKj1Gyj3pajwol19O6i7Ql0IkGSC8QO9UT3WANhPmSpEWoZDRK717ZRPQf58AQ6exDQQzDqkgAlGJ2lRqilpsUywCyPR7CpO5FAB0bhR9AztUqgQ0JJW1XQw49OqGdJi8A5oxZZAh3AMYIG8ZQEOixzMG6EzrdKoIPlrB3q71NrZmVshw8MH0K0hzXo6BLokG1002iuBiNT22iZQGckQ0mi1QCMWvZRR51AB1dXEongqDQStfIL79VQksOlHbxrJT9dVQKdJ0h6jCfQmfWN6MFQ8n3RwbtGmJzVJ9ABJCMChZld0y88RlILQ0mSddodBuY8pckT6EQc9gQ6adPNDCUxvS91qH9JAAYxumoQF6qeQGcHpz2BTvoUJDoL0dM526E2XkItchJ6Ap2ZEvMEOjMZFr2OZaqBZapZC05ob5JE6FO2UjVyEnoCnSC0tSfQsRCitRPoEO6SzFJsWzYzTF0oif5gWk6GqVqeekwJT6Cz8fFbAhCryhPopK8ovZT0BDo7JJEDIHHVvVtnHpqQnkDnEIf6+L1GAp3LR5obIMY+T6DTx0Ta1gtPoDNDNqUAYl3wBDozhFH4VU+gk8Dg0gCJu+QJdBIElKGIJ9BZwMSaALFuegKdBQKbUdQT6Mxg1q5XWwDE+uIJdDIIcEsVnkAnI19bAiQehifQWS5UT6CznIen1NALQKxjnkBnnpA9gc48fs1+uzeAxAPwBDq7xekJdGZP9bQCPQPERuQJdK6QrSfQSZvnyaVGAIgN7tgS6JwvCburfeQJdJKndp6CIwEkHvFIfuH7JIWDE7GpLpH0gfBgSesJdPLM78W1jAoQG3ivfuGLBTNYBa0S6BRn0+gAiRnUg194cYF11kCLBDpVWXBMADHGtfALryq0DhprkUCnybCPESDGSE+gk3dKtUqgk3cUM2s7ZoDErPAEOjMnRvR6qwQ66T3OWHItADGWeQKd6ZOnRQKd6b2r9ObaAGJs9QQ62ydYqwQ6lab7/GbWCpCYU55AR2qVQGf+jK1cwgFyBcM9gU7lyTdCcw6Q7VLyBDojzN4KfXSA7GeyJ9CpMAl7bsIBMk06nkBnGp+O7i0HyHyRjmQoWTuBznxudl7CAZIuoF4NJVsk0EnnYuclHSB5BNSDoWTtBDp5ONd5LQ6QvAJqYSj5OknPCc/FeYfjtTlAysyB0gl0Lo1AQYZip0IccIAUYmxUbc4EOudEwOD226kwBxwghRm8UX1KAp1zJZ0licjzZ9btrrfmAGkzB7hXMb9z/pJtiucGkjhsWwKdsyVd1KaL3ioccID4PHAO7OGAA8Snh3PAAeJzwDmQxgFfQdL45qVWwgEHyEoE7cNM44ADJI1vXmolHHCArETQPsw0DjhA0vjmpVbCAQfISgTtw0zjgAMkjW9eaiUccICsRNA+zDQOOEDS+OalVsIBB8hKBO3DTOOAAySNb15qJRz4f/kPX+npUq0pAAAAAElFTkSuQmCC;aspect=fixed;" vertex="1" parent="BaT0wegMIeFayMMjgJNc-163">
          <mxGeometry x="285" y="3" width="47" height="47" as="geometry" />
        </mxCell>
        <mxCell id="BaT0wegMIeFayMMjgJNc-176" value="" style="shape=image;verticalLabelPosition=bottom;labelBackgroundColor=default;verticalAlign=top;aspect=fixed;imageAspect=0;image=data:image/png,iVBORw0KGgoAAAANSUhEUgAAAMgAAADICAYAAACtWK6eAAAAAXNSR0IArs4c6QAAIABJREFUeF7tXX2MXcdVn7lvHRRSGhcKbSlV3SCkYiTb++ZtAg0lNkUoFERtaKj4p3GE1CAVWlsQVapAcRCoKCBqqyDFrdTa8AeokaitFpUvtRukUm32zds1oabQkNottFSoxNtUtMnuvYN+L/OW67f33jnzce+779250spR3nyemd+cjznnDGfxixSIFCilAI+0iRSIFCinQARI3B2RAhUUiACJ2yNSIAIk7oFIATcKRA7iRrdYqyMUiADpyELHabpRIALEjW6xVkcoEAHSkYWO03SjQASIG91irY5QIAKkIwsdp+lGgQgQN7rFWh2hQARIRxY6TtONAhEgbnSLtTpCgYUHyJEjR/b3er23KKUOcM4PMMbwx5RSq/g3SZLNnZ2dJzY3N290ZM3jNC0osLAAGQwGR5VS72aMHSfSY5Nzvso5v7i+vr5JrBOLLTgFFg4gmmN8xAIYRUt8jTF2Nk3Ty5ubm/jv+HWUAgsFkJWVlSNZln2aMbY/4HqCm1yIYAlI0TlqamEAUhM4ppdyApaLUWeZo13uMdSFAEhD4Jgm8yXO+YXhcHjZg/6xasspMPcAmRE48st6TSl1IcsycJWor7R8w9sOb64B0gJwRK5iu+PmrPzcAqSF4IhcZc42P2W4cwmQfr9/knP+fh9rlVLqCRCIcw6L12EKsRzLQFc5NxwOxxeT8ZsvCswdQDQ4cM9h+13RusKlIl0BHClN06O4P+Gc32PbOKE8LiHPRqWeQKkWFZkrgDiCY0spdWY0Gp2l0v3IkSMHlpaWTiqlTjLGXkutRywHRf6MlPIisXwsNkMKzA1AHMFxBVzB585Cu6wAKPcHXqeJ9eucz/h8x7SysnJPlmUH4KuGtpIk2a+Uwt+uRa7X661ub29f76KVbi4A4gIO6BhZlh0PtfngwpIkCXSfU4G5yg2l1NksyxoBCrgjnDe1Kw5ESpsPDp2XGGOr2rNg4R08Ww8QIQT0DZzgNt9FKaVtHXL7dXEViIJ1AWUwGMCjGeC2BUUVXS7AuXORDRCtBYg24wIcR8g798WCtYIjPxZ9GmPTAYy3W46zrHhQjqLB/HBgYEyPfTVJktOL6AXdSoD0+/2HtShj63TYGDimgALxC9avMwHFL4gvp3yUeU1HjKmRT1vpTjfSWUOdtAogQggowljQscJo+c0EHNNj1PoSuEqouxVrq5d2+f9YzVyjbHk2kyR5YFG4ycwBMon48wBGo2IVFbQQbbIsOxPwTgUBXadN8r6mJ1z+bUVT6tQo5W4kSXJsEUAyE4Bo/QKXceOLOQrFK8q0gnOUja8GoODC8ZEioAQCB+6NxhGVnHOAzFW3WgiQ1A6QnFkRxJ78eWJit/o5KSXEmdZ/dQAFgVxJklzZ3t6+0ev1cOC4iKdXOOdj020Zd8KBppQ67nBxeiNN0+V5vj+pDSAOMeFWm1wp9cBoNLpgVakFhWsAiuusLiZJctZWDNI6FrwSqJxlM03TY6Huo1wn61ovOEDA5peWlh7WNnfXcVXWm1dw5Cc1Q6CAY5wy6TJVC6ClAnAdqiFibjj99LyDAiSQDEwBVakcTqncpjKa0+JEpm42n+FfTNP0VIjTXK81PJRJ4+acH/MBpc+kfeoGBYgQYqNh68mlNE1Pz7OMO1k8LbqEvEeZ3hfexgwhxKuUUn/EGPvSaDR6jwYJzNAUcWtTSrnss1lnUTcYQIQQOAWRh2oWH7KOPBKBUkr6y1JKL2vhYDB4UIPjO3Uvj0spf0lbJMFJjCDR1rfGLi5DbMQgANFiAmzvM/1wk7uzswOgzL0TXb/fP6Vv5o0bj0J07fL/CKVsvsxdd931ip2dnQ8zxt5cUHcMEpv1T5Jk2dYwYDvmkOW9AaLZ7Bd9ovtCTogxFtSXKfDYrJrTBo9T2uARAiiwKJ2w5bSDweC05h5F4x+DxMLjelVKecyKEDMs7A0QIQQ4h7WHKNzRkyTZDUPNsuyozp0bKkAJXASBSedmSN8gXQcGitMF3mAwWFdKDYompJR6x2g0+pAQAmZ3Y9zMPFkhvQBiw1o1Ybe0GHS2TAzSHGlyw45/fQFj7csUZFfX0EhIoNhu0sFg8Fal1OMl03omy7I3bmxsfEUIgVt4k2ULF4ivmwdR2AsgltxjK0mSo7byp1YC4U4OsJgIX7Ytr0gpZ+mbFBQu+h4Cyq7xtK7q2BYkQoi/ZIydKGnzA1LKd+mxASQmkXAu7kacAWLJPZzAMb0QIL52KwdgbMAyF4thi6IQQLEByfLy8o8lSfKPJeP8dpqmhzY3N78ghIDFDN7ElZ/mIq1OtucMEBvuoZQ6bZM0wURY/G4Dlnm9pKLQAWV0Rpazjp7DVjqJEAI63btKdBEkxxhbyoj6SOsVdieA6JMLlivKd11K6RLfQWl7XEaDBUo+nOrGolTOE3VLSmkbeEXuu00F9ckNRdkk3kwP+5p2KjSax1dWVu7IsuxJxtj3FMz937a2tg49/fTTz1Nv2tt+eDkBRNvokbjN+NmwcGNjDgUAHluzpkM3ramik0sgWZ1tbq9LUsoy/eKm+fX7/Yc4548WTZpz/vbhcPhnE86WZRm8K6q+a1LK17WGgFMDcQKIhUvJVpqm2KDGk6mtBJrXcbl4NlBFYSEEbtM/U+JWNL4XmdCNcpjO+hCtWmNXgCjixvH2/yH2E4sVUMDi8m5Sm2x+HQwGb1dKFSW/+3aWZa/f2Ni4ngMJnEurOBq536YX2hogNtarNp8MTRN6Vv05gIRs8ev3+5c55z8/PTfO+a8Ph8M/nvx/ilNjW/20agXIvPndzGoT192vLUio5lchxE8zxv6mYPyfklK+Kf//CabfVnIRa4BQZMoJYaSU1u3XvVna3P6hQ4du6/V6t3POYYXCv6rX6z27vb397O233/7s6urqjuv4LUFCFo0Hg8F5uJpMjyvLslfjZn0KJCaPb3K/rnSwrWe9gQeDwRmlFBKRVX7wtRqNRtY+WqZ2F+X3u++++7uef/55oZQSjLEf154CJnP0mlLqrxljn923b99n19bWvmFDD+LdxLjJNE1fRjGuLC8vH9Y+ddNj/w0pJWJHdj+KqEXlXjbz9ilrDRAqB4kA2bssKysrr0nT9B7O+b2MsZ9hjH23x+L9F5I26EySn6e2Q/SVwj0SMqeQYjeEEL/DGPvtqTEUcgOTdY1qSaPO17ecNUCoSnoEyItL0+/3f5hzDk6Kv5/yBEXRen8bQFlaWjqztrb2NdOGsAhwIt9P6JiRTzHGDjLGPsEY+10p5VrRWEz7p237pjaAgDhRB9kFyY9OQKKUwo3/d5g2ssPv8Gl6UEr5t6a6VDHZxsjS7/ffmSTJ/wyHwz+v6n/hAWLjZtI2edK0cZr6fWVl5ZVKqTuzLLtbA+fOgH0/JKX8Q1N7QggAyhRKQDb5mvqb/L7wAMFEqXJsvAehbpsxTfuc85Usy+7knL+RMfZD9No3l+Scv3k4HH6yqj7RqnVDSvky13EU1TPpIDa6T8hxlbVlLWJpgJjMdZP+vJMFNEGENvaxvLz8vUmSACwT0Kwwxl5OHWuSJHevr6+XuaaPm6FwERsxizI2IQScXKucV09IKZFzqxWfE0BMbDI/syhm+a/zYDC4Wyn1J5YxME9zzk8Mh8N/LhsBhYuEtCoRLgvJ5mV/qtJacAII9fTRQ2i9zz+NVM2Xuu+++3rPPPMM7hIK4y8II/qolPJtVeUIXCSYFEC4hwnWF4E2pCLOAKGcPpMRtN3nn0Sphgv1+/23IX6fMfZKn6455/cPh8M/LWuDYNEKoofoS8Jnq+bSRp3VGSCai8CNnRKcQw7I8dkMi1BXCPGDjLHfZ4y9NdB8/qXX673xySef/HpRe5TbbcSh++oFhAO1laERXgAhnD75NSEH5ATaGHPXjBDiPQCHUuqbnPPnGGPfZIw9xznHv3Az+RF9GWcbofleKeX7PLiIt7mXEEPUOj8s0MsLIPr0QQYLkz19vDYhFb652/0BB6xz5MKHC89S/yKh6c/dcccdhx9//PG0gotUraOXmEW5OwttLSPQhFTECyDowcaihfJtJQSJWi0stLy8/BN4E5DwVPbJqgdBTSKQj35guvtgjNWet8B16bwBonUR6r0Iikd9xHW1KuoJIe5jjH20osjfSSkRv1H69fv9qsg/sm/WdAdCCCjnpZ7KbZYsggDEVtRijEV9pAaQDAaDNyul/qqs6SzLVjY2NoZlv2tHxtIkCy7WSBNnwljafFcWBCAuopYPy65hby1MkwZ5v1JZ1+tYFe9jfadFyJ/W6qyXwQBCIO70JrRKWLYwO7iBiRw8ePCWW2+99fmCrj4tpfxJ0xCqLg9tdEiKct5m8Qp0CgoQrY/Aj+YtpkXQv8/1A4/EOc6kGIKzsiz70nTnlBAEg+GFbI6lBNfZAG4WhAwOEGpGvdxkL0gpYYWJX2AKLC8vD5IkWc81+znG2K+UBTPlu6+wPJGTKxDuPlqf9TI4QEBkiwzf4zWJ+khgZOSaE0L8rFLq3l6v9+j6+vqXbXoqC2ugiEVE8ar1eQtqAQgWwSK0E8WjPmKzcxsqq6UBxL3fJDJTDjSK5y5jrHXOidOkrQ0g6Ihi4ssNKOojDW18225yXrhXkiQ5SXnjheKG1LbgqCK61AoQdEghVNRHbLds8+Vx2GVZdomSCkgfjniE1JTg3NvHq25K1A4QTEAIQbZsUdh33USJ7ftTgOKC1LYMJjPhIFpp39/r9fBgJ+VVKFhJlrv0ZIH/dmxnC0IIYzgExew8y9k1wkEclPZNKeXyLAkT+/anAMFJsfUWzMYAYqu0z4MC57+FFrsFiqmXMWbtvtIk1RoFiNZHSG9po6yLc1yTxGuiL5jLlVKvHQ6Hl5voL3QfFC7S5nVuHCCWN+2dcY2fACHLsiP6fUVEDe4+Xd12Wb0MWMSQ3tZykcYBktNHTG/XTWi+UK4oJiCUbTRqtvXQHCBEexRTf1u5yEwAAqJTiJZbHO+kASEW2qYN7UlwWCl1oIgj2LS1COImIb2Qc0CWLS1tys8MIFofQRz03Jt+J2DIPUMd/F2Utp6w1M1G8apoo2FmpgAxRbBNEb8Vcipk6qWlJTxIeVS/yR4cDEWbrg0A0a/bvopz/hqlFB7v2cqy7BvPPffcN/A2ugkshpBeVCd7Cpv6CvX7TAGiuQg5nn0WJ8wUIACGXcU51CJQ2pkFQHT2lHcgGTZj7AcYY99fMVZcCiJjPP6eYYw9zRj7d/xJKfEvNcEHOd6EQjffMjMHCNHKsTvPJgJsVlZW7lFKHcdbHrMCRMHCNqqH9fv9hznneHuwChRl+2/EGPuQlPKDjLEsX4jidjSLw6BsIjMHCAZGkU9zEwhu+tUXWnDpBiCO+546ddRvknv2+/0PcM5/zWEeV5RSH3rpS196vuzB0Xm7PGwFQLSoRXnQZbJm3vrIYDAYAwKcwpCO32GfhK/SFEAoYbIFs0MG+Q9+61vfOn/16tUXTLMnJLFuzSVxawBC8f6cIvylNE0foLpfa4PAWLluK5eo2lhNAMSUNqhgfFc1x3hsdXUVbyWSPmLEaSvMvq0BiBa1qhKXFREfXOdMUcZAvQgTQAAUtvlsSYvdVKEmACKE+AghQyOm/K/gGIyxx6SU/+tCA8o9WBt0kbYBBLlmsUguH9zpJx/AMNeAmCZA3QDRBwpEpdsqiP8FLUo9dvXqVSTUdv6IxpmZh+S2CiCgNuHG1XlR5rli3cFF/X7/Ic75oyU0eoZzfl4pdV5KuRWKjhQuMuusi60DiKVFK9Ra+bSzpZTa5JzjHoCaD8y6vwYA8hnO+RumBgYR9vwLL7xw/qmnnqp8/MZ6Qi9mv0Egnel1gJmG5bYOIETW67IeIetc4Zxfwt8kgQFxsZ3HUCdADh48+JJbb731q4yxl+gBflkp9djS0tL5sod3nCcyVZFwIM70dr11ANFiFvl2PdRCEdu5mCTJ2bKsHo4mUlLXdQJkZWXlDVmWfYYx9p9QvLMsO7+xsfHfpIEFKGQSqyl5uAIMo7CJVgKEeJlUF00K26Ukk6iT+9UJECHErzLGvg8cY21t7WtFBACXue222w6laXonY+wrnPN/klJ+PsQiELjIzEKwWwkQEJ2iwIVYHGobVJNjXeOuGSCvklJCxCr8+v3+Cc75HzDG8H5i/vsa5/zJLMs+OBqNPkGlZVE5ExdpwsWoaFytBYgWtcjhuYbFua6UgsKJG9obnHMohuNvomArpWBeLjUNUwFSIxdp/OJMOys+yDl/2LT5lVJ/MRqNftlUrgKEJhP/TJT1VgNEcxK4g5zSmxexI2OrUdFmRwKAyQLs7OxsUm/ZCSzeyvWBEoftspGaCrs9dOjQbbfccss7lVLvtnRWfJ+U8r0uc9MHYpW7kdc7ia5jaj1AXCdGradPfIT/Vl4s2iiKdelQTQFkMBg8qpR6iErDXLntJElev76+Dnd3648gnpZ6NE8cTpVS+5Mk2Y9DNE3Ty9RDsmywnQcIYVEmtLNi8RSHPNsdRBXzbNst0Qk+zhj7Odu2lFK/NxqNfquqnvaLy6clpXo+7IkV0T584HRFXtgQp08Mh8O8l4XVlDoNEM09vlj1wGROV7FK1V8HF6nb3SS/cw4fPvzqpaWlf2CM3WG1oxj7qpTSGENiUsrL+pwkrxBC3K/9xkwRnV4vB3QaILb3FraZRQghppZ7jzWqqPf7/Xs555+0HOTXpZQvN9WpS08r6dc5PKLTABFCgHvYODVaRfU5uPCb9hWsbqdHoxEuUhv5hBC/yRiDiZf6PSWlPGQqXAeHrerTVTztLEAolqsCglvpIahfAxdhTd0J3HXXXa/Y3t7+OOd8xbThc79/TEr5C5TyddCmol+nWPfOAoQSG11AbGsRh/jSEmU/5cvAMRJxMOdsK9qUHwwGf6+UepNFnUtSyhPU8o6HFLX56XJOZuJOAkQr567eqVZiFlbJVSEl7AQEmJ2tI2/vYDD4MNxrCGOAYyPM5Buj0ejMdHnQet++fYW5z2CSVUrh7ZhGPhcxq5MA8Ty5rFm1Z3+UzXONc/6Ajzkz3wl0J0qnvV7v6bW1tf+oKmtrCKH061omAoRIOd87Cpcgnhq5yO6sKQ6VRBIFK2ZxzxSsz7KGXMzkneQgQgiIV/tdV8SF0E2dpC6npCsdKPUaNude0e5GuDjc87msW+cAEsi8aB3EU6MT4x5lVHM4KPIz/wJYqhDie7tpIvB2zrLseK/Xgx5UCBAXE3nnABLQqmRt8m1K3HA5KU0b0PV3/dwDslQiZSv+XmvTFsRGHc4Mz+5CoOTnWwVIF+7aRYAEi1a01UUa5CIzCzCq2vxCiE/rvGRUjFyRUo5zIYN2eKM973OVJMnqzs7OhfyDr0IIVda4y/1R5wASgOXn6W/twuBrIKDurKY8f6njcbHk2Z74JvHZhSadA4iDe0nlHrCVa02LSN1whnJbUkpnI0SgMew2Y+MUOqnkEkFpAOEuN7KZXxcBUsqCbQiXL2vLuuvmIi6by3XulHoFliwkuYZOgUC0vNv7bnO24isqGixm1vdX4/FRJrhIZapkVI95WmWcb4CLOG0Gj/mXVs09knQZt+ZZll2aBDFVHBRO4xdC4Ea/8P0WW04/mVCnAFKHd21uZ1gpxo6+YKQ93DYr1vb29rWiyL4ScXcrTdMDtpGAJvchW30mAoS01awLkV/krROsbQJIGQXLnt9zHbvJCOCioHdOxKpzU+Y2AhkkgS1qu0Nw3WTWx4FHhRJ9wYl7aP0DTo+FqV99dLIoYnksckVVEkjqAqzrhpjcNTQRkFUEEFdfMpOVzOfAiACpByBo9UKapqdNsnRNXMRKH8Jg9SbDRd6BplxV9AGBi1u4w1+XUtpEd+6unEm8ctU/oohVHzgmLSP1zLEqkNTFRWzi57U+8LFJ+LGrxceVnNjgSZJcc3XXN9zQe90JRQ7iuqr0eteSJDlRlvAazdTBRajiigYHOEf+YtE6cpJOjrAlCSZzJ5NxtGKFXSdTazf0qTy+HJv+auIixteZSsAxHh4VYKaJ1/276dLVdx6d4iBlpsWKRUR8QWG4qOPCl+oldQRUVd1GV4FDz83q8tORHl7VTMo5GrcRNYsG0ymAgAA2N+mwfmRZhnBW13cTi2heGB5rUjQdd1KheEEAx7g7H+uP43itqhHCB7zEqzENrEa0AIVtAMIYG4spdWxeJFvY2dl5JK/A16GLFFlwTGJJfplt/cya2iJa94BrSalTpo/1qpM6iOYgiLQzRqhpOXw33WgdIGGMYSwPSCnHmT0cREDKftwjKlnGpbRS1CKA3NlsnCdq5ziI5Sl9032CjkYsjWyj7NaSMqtpmj6AwJ+aYrj3XFxaxshb5bvyoAOpKsWo4aucd5mDlLokFK3OtA+PPuXRhlXoKGXlJ2JXr9dDNvKQxoHClKVwmERuKs45xBRTfyTvAMo8fctUee3qtr3uPjrNQQiK3U3rV2QF0S4ZeOX2Ht/FLqgPsQsARIZCkihIHUOZTG5Bk5mDhDLWkMaFLopYpqe+btpvVYqeFlOQRSPoRqZueIdye7KxUJTdqX4gDp4wudA4jM1YhZhww9nhsWgAnQMIRX69icVy/shwONyTUnNSBhssSZILNXET46axLTB9uhKU3aIujN4BtuMylacCOZTu0VkdBBO3NPWiijEfr7ZywfGu7dxkN4mz7WExtYkbSaCNPnOOlIXRgpNxuXoxV4GzcxxEAwSPgJqU0mm6QXGGDH6xjKB6IUsTl5lOyaZ+n5yygRJY1CpyUcEB2tVxZ9NVgPjkxsJLrHh6oAooB3SGPzwT1sYPWeGfUEoZn3cmDv6m+xxiHWMxLVbBy7iSc6ChkIr5TSK2cZQLWCDQpR8cEM9mWXauTGHVCwyO0kagYFOHTg20e5/ju22EEEgfCtoZx1iHaNVpHSTwjTVeUr2ws7MDoIC77Pk0UPDWOzIDtl1H8d3bOM33uNFQG9W0gu8b6QkGBFqlaXqkLqtaJ0UsrYdUPVpPXc/pcrBmXawK/NHcC2Cx1YGMY8JJmiTJ2OKmlAIYZ825QI9LlAd+9Ku1eMq56DnnsrlvJUlytCrWxkg0Q4EuA8RHDzHR3fjyk+Zi2MTBuMq0qKGtVLh0bAPXAk02syzbzTrPOYduARFq8q+JrtO/G62Ltg1Ol+8sQDxNnFS6jxX6NE0vV4kA+gIMJ6f3iT9tydEiC6x2bQAJlW7GcqHvO8o67CxAtJhF9uw1rlh1gYlCf7FMT0F17cJynHMOsBSmsCGMY4/3reZWMFMvAkjwXsjJiQc0gR5eRboOEHjmep/alitwIUmScya5WW9qjM9FV9njfRvIcmc51eDFa9c5ooiVo0BDYlbZLjFePBJ9j8raL3Jxt/JDC769PRqcvCBVl7UqilglFBBCuNyqeyz1nqrXkOm87D5FCOEjBu55BavGmJaQNMm3taWUOtNEMruiCXRaxAJBWiZ6IKkDwnB371MsA7z2rHGRMluzu35IoFxM0/RMld4WsrMIkAIKWIaf1r0ek/ZXlVIQwXDpBjOwU8bBSWNlFp/cTT+MAm1R4KGEX5o1MCa06zwHASEcXb6bAoupH/iEmQwNxvhs6GNZlh3hnOMGG4B0MQ6Yxlr1+573Q3waC1U3AuRF8yqcC+fyrgC5r5aWlg5kWXamIibF6UJNv1CLi7yjSqkD+NOXe77cBnrFJh7hxLvmOzs7m00r31QARYBoSlFCOalEbbjcrrVKK+DwEMjHyxszLLqMNwcelmUZgsZKxUDcnidJggOIuebfdRljiDoRIJqKLdVFqGsMmR1ZUcZuHLlQYITY1ubIRx3cPJeLAMmt3hxzEcziptt6AB5+TrO0AM0zMKKSXm7RgigQPKVPw5sFDorgKpU+YA2PaS67ixxkatk8bq8vM8ZwfwErUNMWoKrNB7AgR+04e2P87CgQAVJAL8fLOSiix+BjpTOdHNVOhwCMr9XHblWnSjfl+eo1yJZWjgApFrVczb6FeWy1xee4UgoXck1zF+8M5y3du40MKwKkhMyWuWvzreDZNSRWKwu/3d/r9cBVABb8W6e+c0VKaUx40MhOm9NOIkAqFg65ax3jMnbFLdO+AHdJ0xTiGFxKQnKXK2i3rRdwJrq05fcIkIqV0HcjrlatymfXirrNBUxNOIyr7hI0/WZbNussxhEBYqB6gJgRmFvxHHShyFXVve57IopZcZc6kqjNYoPOus8IEMIKBHCJN+bQMg1D+4tB5KMChSzmmfru8u8RIMTVD+TxO37agBJyWyKC2VrX9mRzJ043FtMUiACx2AoeSntRLxC5xt6sSZJcW19ff6JqKJqDvN8ybxSa3BNVaDHlzheNALHYAlppD/7609QQxoFSUx81y2DhbEI8ZmlBpoUqGgFiuZwNgcRyVMbiuJs5Fk2+RjrtKRABYk+zyXsVdXMSh5FVVtnknJ+mxmNApNu3b9/4EhPxHgiWwn9zzvHv+L+TJDltSl8UehJNtxcB4kjxOeUkmC10nzKTs5Uo1wXRLQLEESCoNscg8Zj1/1eNAAlCxsVuRIMEYa6mxAkLR4guXEZGDhJo2woh6swWH2iUQZvphPk4AiTgnpmjhzydZ61TgJ50cZ1x7nSGFSNAAhPfM+l04NGEa27yOA/VChau59m2FAFSE/1nJHIhGzzc5kN+13VuXLTduS8CpMYl19642Fh1BkXVNYOZJo2ua1K27UaA2FLMobxOJ4R3CV3jOxx6da6ypR/hPBtv3hmLAHHeR3YVW/4kNCYTgVGwpBEgdvvcu3QLM6pf189YR44RAeK9v4M1gAvGpaWlU/q55sZ1FFilGGMXRqNRJ5Vv6kJGDkKlVI3l6ngSumS413XGRXAL6xDgGknQ2qYjQFq2NLksJ3AcDJF0Du9urPZ6vdVF97ytYykjQOqgasA2tSh2JP/EgFLqiFIKyal3P875Dc75+IkB/ebGtcgl/BciAsSfhrF59R14AAAAgklEQVSFBaZABMgCL26cmj8FIkD8aRhbWGAKRIAs8OLGqflTIALEn4axhQWmQATIAi9unJo/BSJA/GkYW1hgCkSALPDixqn5UyACxJ+GsYUFpkAEyAIvbpyaPwUiQPxpGFtYYApEgCzw4sap+VMgAsSfhrGFBaZABMgCL26cmj8F/g/F9mvIcPSp0AAAAABJRU5ErkJggg==;" vertex="1" parent="BaT0wegMIeFayMMjgJNc-163">
          <mxGeometry x="400" width="51" height="51" as="geometry" />
        </mxCell>
        <mxCell id="BaT0wegMIeFayMMjgJNc-177" value="&lt;span style=&quot;font-size: 16px&quot;&gt;&lt;b&gt;运营中心&lt;/b&gt;&lt;/span&gt;" style="rounded=1;whiteSpace=wrap;html=1;strokeColor=#82b366;strokeWidth=1;fillColor=#d5e8d4;shadow=0;verticalAlign=top;arcSize=2;" vertex="1" parent="1">
          <mxGeometry x="1583" y="414" width="171" height="171" as="geometry" />
        </mxCell>
        <mxCell id="BaT0wegMIeFayMMjgJNc-180" value="&lt;span style=&quot;font-size: 16px&quot;&gt;&lt;b&gt;开发API网关&lt;/b&gt;&lt;/span&gt;" style="rounded=1;whiteSpace=wrap;html=1;strokeColor=#82b366;strokeWidth=1;fillColor=#d5e8d4;shadow=0;verticalAlign=middle;arcSize=7;" vertex="1" parent="1">
          <mxGeometry x="1583" y="340" width="171" height="50" as="geometry" />
        </mxCell>
        <mxCell id="BaT0wegMIeFayMMjgJNc-181" value="" style="shape=flexArrow;endArrow=classic;html=1;rounded=0;fontSize=16;fontColor=#000000;strokeColor=#00CCCC;strokeWidth=2;width=3.832020997375328;endSize=2.6157480314960626;endWidth=5.002974419988103;" edge="1" parent="1">
          <mxGeometry width="50" height="50" relative="1" as="geometry">
            <mxPoint x="1365.07" y="318" as="sourcePoint" />
            <mxPoint x="1365.07" y="337" as="targetPoint" />
          </mxGeometry>
        </mxCell>
        <mxCell id="BaT0wegMIeFayMMjgJNc-182" value="" style="shape=flexArrow;endArrow=classic;html=1;rounded=0;fontSize=16;fontColor=#000000;strokeColor=#00CCCC;strokeWidth=2;width=3.832020997375328;endSize=2.6157480314960626;endWidth=5.002974419988103;" edge="1" parent="1">
          <mxGeometry width="50" height="50" relative="1" as="geometry">
            <mxPoint x="1364.8199999999997" y="392" as="sourcePoint" />
            <mxPoint x="1364.8199999999997" y="411" as="targetPoint" />
          </mxGeometry>
        </mxCell>
        <mxCell id="BaT0wegMIeFayMMjgJNc-183" value="&lt;font style=&quot;font-size: 9px&quot;&gt;路由&lt;/font&gt;" style="text;html=1;align=center;verticalAlign=middle;resizable=0;points=[];autosize=1;strokeColor=none;fillColor=none;fontSize=16;fontColor=#000000;" vertex="1" parent="1">
          <mxGeometry x="1375" y="387" width="34" height="25" as="geometry" />
        </mxCell>
        <mxCell id="BaT0wegMIeFayMMjgJNc-184" value="" style="shape=flexArrow;endArrow=classic;html=1;rounded=0;fontSize=16;fontColor=#000000;strokeColor=#00CCCC;strokeWidth=2;width=3.832020997375328;endSize=2.6157480314960626;endWidth=5.002974419988103;" edge="1" parent="1">
          <mxGeometry width="50" height="50" relative="1" as="geometry">
            <mxPoint x="1364.8799999999994" y="586" as="sourcePoint" />
            <mxPoint x="1364.8799999999994" y="605" as="targetPoint" />
          </mxGeometry>
        </mxCell>
        <mxCell id="BaT0wegMIeFayMMjgJNc-185" value="" style="shape=flexArrow;endArrow=classic;html=1;rounded=0;fontSize=16;fontColor=#000000;strokeColor=#00CCCC;strokeWidth=2;width=3.832020997375328;endSize=2.6157480314960626;endWidth=5.002974419988103;" edge="1" parent="1">
          <mxGeometry width="50" height="50" relative="1" as="geometry">
            <mxPoint x="1558" y="504" as="sourcePoint" />
            <mxPoint x="1581" y="504" as="targetPoint" />
          </mxGeometry>
        </mxCell>
        <mxCell id="BaT0wegMIeFayMMjgJNc-191" value="" style="group" vertex="1" connectable="0" parent="1">
          <mxGeometry x="1601" y="444" width="136" height="132.5" as="geometry" />
        </mxCell>
        <mxCell id="BaT0wegMIeFayMMjgJNc-192" value="&lt;span style=&quot;font-size: 16px&quot;&gt;体系化模版&lt;br&gt;&lt;/span&gt;" style="rounded=1;whiteSpace=wrap;html=1;strokeColor=#99FFFF;strokeWidth=1;fillColor=#E3FFFF;shadow=0;verticalAlign=top;arcSize=7;" vertex="1" parent="BaT0wegMIeFayMMjgJNc-191">
          <mxGeometry width="136" height="132.5" as="geometry" />
        </mxCell>
        <mxCell id="BaT0wegMIeFayMMjgJNc-199" value="&lt;span&gt;&lt;font style=&quot;font-size: 16px&quot;&gt;新手任务&lt;/font&gt;&lt;br&gt;&lt;/span&gt;" style="rounded=1;whiteSpace=wrap;html=1;strokeColor=#000000;strokeWidth=1;fillColor=#FFFFFF;shadow=0;verticalAlign=middle;arcSize=7;" vertex="1" parent="BaT0wegMIeFayMMjgJNc-191">
          <mxGeometry x="18.25" y="29" width="99.5" height="27" as="geometry" />
        </mxCell>
        <mxCell id="BaT0wegMIeFayMMjgJNc-200" value="&lt;span&gt;&lt;span style=&quot;font-size: 16px&quot;&gt;签到留存&lt;/span&gt;&lt;br&gt;&lt;/span&gt;" style="rounded=1;whiteSpace=wrap;html=1;strokeColor=#000000;strokeWidth=1;fillColor=#FFFFFF;shadow=0;verticalAlign=middle;arcSize=7;" vertex="1" parent="BaT0wegMIeFayMMjgJNc-191">
          <mxGeometry x="18.25" y="63" width="99.5" height="27" as="geometry" />
        </mxCell>
        <mxCell id="BaT0wegMIeFayMMjgJNc-201" value="&lt;span&gt;&lt;span style=&quot;font-size: 16px&quot;&gt;分享裂变&lt;/span&gt;&lt;br&gt;&lt;/span&gt;" style="rounded=1;whiteSpace=wrap;html=1;strokeColor=#000000;strokeWidth=1;fillColor=#FFFFFF;shadow=0;verticalAlign=middle;arcSize=7;" vertex="1" parent="BaT0wegMIeFayMMjgJNc-191">
          <mxGeometry x="18.5" y="97" width="99.5" height="27" as="geometry" />
        </mxCell>
        <mxCell id="BaT0wegMIeFayMMjgJNc-203" value="" style="shape=flexArrow;endArrow=classic;html=1;rounded=0;fontSize=16;fontColor=#000000;strokeColor=#00CCCC;strokeWidth=2;width=3.832020997375328;endSize=2.6157480314960626;endWidth=5.002974419988103;" edge="1" parent="1">
          <mxGeometry width="50" height="50" relative="1" as="geometry">
            <mxPoint x="1668.7699999999998" y="412" as="sourcePoint" />
            <mxPoint x="1668.7699999999998" y="393" as="targetPoint" />
          </mxGeometry>
        </mxCell>
        <mxCell id="BaT0wegMIeFayMMjgJNc-205" value="" style="rounded=1;whiteSpace=wrap;html=1;dashed=1;fillColor=none;strokeColor=#007FFF;strokeWidth=1.5;arcSize=6;" vertex="1" parent="1">
          <mxGeometry x="1166" y="259" width="406" height="337" as="geometry" />
        </mxCell>
        <mxCell id="BaT0wegMIeFayMMjgJNc-208" value="" style="ellipse;shape=cloud;whiteSpace=wrap;html=1;shadow=0;labelBorderColor=none;fontSize=16;strokeColor=#d6b656;strokeWidth=1;fillColor=#FFEC6E;opacity=30;" vertex="1" parent="1">
          <mxGeometry x="897" y="989" width="351" height="224" as="geometry" />
        </mxCell>
        <mxCell id="BaT0wegMIeFayMMjgJNc-209" value="&lt;font style=&quot;font-size: 24px&quot;&gt;流媒体服务&lt;/font&gt;" style="text;html=1;align=center;verticalAlign=middle;resizable=0;points=[];autosize=1;strokeColor=none;fillColor=none;fontSize=20;fontColor=#000000;" vertex="1" parent="1">
          <mxGeometry x="1008" y="1039" width="130" height="29" as="geometry" />
        </mxCell>
        <mxCell id="BaT0wegMIeFayMMjgJNc-213" value="" style="rounded=0;whiteSpace=wrap;html=1;shadow=0;labelBorderColor=none;fontSize=18;fontColor=#000000;strokeColor=none;strokeWidth=1;fillColor=#33001A;opacity=30;" vertex="1" parent="1">
          <mxGeometry x="488" y="931" width="120" height="60" as="geometry" />
        </mxCell>
      </root>
    </mxGraphModel>
  </diagram>
</mxfile>
